<?xml version="1.0" encoding="utf-8" standalone="no"?>
<!DOCTYPE svg PUBLIC "-//W3C//DTD SVG 1.1//EN"
  "http://www.w3.org/Graphics/SVG/1.1/DTD/svg11.dtd">
<!-- Created with matplotlib (https://matplotlib.org/) -->
<svg height="288pt" version="1.1" viewBox="0 0 432 288" width="432pt" xmlns="http://www.w3.org/2000/svg" xmlns:xlink="http://www.w3.org/1999/xlink">
 <defs>
  <style type="text/css">
*{stroke-linecap:butt;stroke-linejoin:round;}
  </style>
 </defs>
 <g id="figure_1">
  <g id="patch_1">
   <path d="M 0 288 
L 432 288 
L 432 0 
L 0 0 
z
" style="fill:#ffffff;"/>
  </g>
  <g id="axes_1">
   <g id="patch_2">
    <path d="M 54 252 
L 388.8 252 
L 388.8 34.56 
L 54 34.56 
z
" style="fill:#eaeaf2;"/>
   </g>
   <g id="matplotlib.axis_1">
    <g id="xtick_1">
     <g id="line2d_1">
      <path clip-path="url(#p605ead5782)" d="M 69.218182 252 
L 69.218182 34.56 
" style="fill:none;stroke:#ffffff;stroke-linecap:round;"/>
     </g>
     <g id="text_1">
      <!-- 0.0 -->
      <defs>
       <path d="M 4.15625 35.296875 
Q 4.15625 48 6.765625 55.734375 
Q 9.375 63.484375 14.515625 67.671875 
Q 19.671875 71.875 27.484375 71.875 
Q 33.25 71.875 37.59375 69.546875 
Q 41.9375 67.234375 44.765625 62.859375 
Q 47.609375 58.5 49.21875 52.21875 
Q 50.828125 45.953125 50.828125 35.296875 
Q 50.828125 22.703125 48.234375 14.96875 
Q 45.65625 7.234375 40.5 3 
Q 35.359375 -1.21875 27.484375 -1.21875 
Q 17.140625 -1.21875 11.234375 6.203125 
Q 4.15625 15.140625 4.15625 35.296875 
z
M 13.1875 35.296875 
Q 13.1875 17.671875 17.3125 11.828125 
Q 21.4375 6 27.484375 6 
Q 33.546875 6 37.671875 11.859375 
Q 41.796875 17.71875 41.796875 35.296875 
Q 41.796875 52.984375 37.671875 58.78125 
Q 33.546875 64.59375 27.390625 64.59375 
Q 21.34375 64.59375 17.71875 59.46875 
Q 13.1875 52.9375 13.1875 35.296875 
z
" id="ArialMT-48"/>
       <path d="M 9.078125 0 
L 9.078125 10.015625 
L 19.09375 10.015625 
L 19.09375 0 
z
" id="ArialMT-46"/>
      </defs>
      <g style="fill:#262626;" transform="translate(61.573182 269.373594)scale(0.11 -0.11)">
       <use xlink:href="#ArialMT-48"/>
       <use x="55.615234" xlink:href="#ArialMT-46"/>
       <use x="83.398438" xlink:href="#ArialMT-48"/>
      </g>
     </g>
    </g>
    <g id="xtick_2">
     <g id="line2d_2">
      <path clip-path="url(#p605ead5782)" d="M 107.670831 252 
L 107.670831 34.56 
" style="fill:none;stroke:#ffffff;stroke-linecap:round;"/>
     </g>
     <g id="text_2">
      <!-- 0.5 -->
      <defs>
       <path d="M 4.15625 18.75 
L 13.375 19.53125 
Q 14.40625 12.796875 18.140625 9.390625 
Q 21.875 6 27.15625 6 
Q 33.5 6 37.890625 10.78125 
Q 42.28125 15.578125 42.28125 23.484375 
Q 42.28125 31 38.0625 35.34375 
Q 33.84375 39.703125 27 39.703125 
Q 22.75 39.703125 19.328125 37.765625 
Q 15.921875 35.84375 13.96875 32.765625 
L 5.71875 33.84375 
L 12.640625 70.609375 
L 48.25 70.609375 
L 48.25 62.203125 
L 19.671875 62.203125 
L 15.828125 42.96875 
Q 22.265625 47.46875 29.34375 47.46875 
Q 38.71875 47.46875 45.15625 40.96875 
Q 51.609375 34.46875 51.609375 24.265625 
Q 51.609375 14.546875 45.953125 7.46875 
Q 39.0625 -1.21875 27.15625 -1.21875 
Q 17.390625 -1.21875 11.203125 4.25 
Q 5.03125 9.71875 4.15625 18.75 
z
" id="ArialMT-53"/>
      </defs>
      <g style="fill:#262626;" transform="translate(100.025831 269.373594)scale(0.11 -0.11)">
       <use xlink:href="#ArialMT-48"/>
       <use x="55.615234" xlink:href="#ArialMT-46"/>
       <use x="83.398438" xlink:href="#ArialMT-53"/>
      </g>
     </g>
    </g>
    <g id="xtick_3">
     <g id="line2d_3">
      <path clip-path="url(#p605ead5782)" d="M 146.12348 252 
L 146.12348 34.56 
" style="fill:none;stroke:#ffffff;stroke-linecap:round;"/>
     </g>
     <g id="text_3">
      <!-- 1.0 -->
      <defs>
       <path d="M 37.25 0 
L 28.46875 0 
L 28.46875 56 
Q 25.296875 52.984375 20.140625 49.953125 
Q 14.984375 46.921875 10.890625 45.40625 
L 10.890625 53.90625 
Q 18.265625 57.375 23.78125 62.296875 
Q 29.296875 67.234375 31.59375 71.875 
L 37.25 71.875 
z
" id="ArialMT-49"/>
      </defs>
      <g style="fill:#262626;" transform="translate(138.47848 269.373594)scale(0.11 -0.11)">
       <use xlink:href="#ArialMT-49"/>
       <use x="55.615234" xlink:href="#ArialMT-46"/>
       <use x="83.398438" xlink:href="#ArialMT-48"/>
      </g>
     </g>
    </g>
    <g id="xtick_4">
     <g id="line2d_4">
      <path clip-path="url(#p605ead5782)" d="M 184.57613 252 
L 184.57613 34.56 
" style="fill:none;stroke:#ffffff;stroke-linecap:round;"/>
     </g>
     <g id="text_4">
      <!-- 1.5 -->
      <g style="fill:#262626;" transform="translate(176.93113 269.373594)scale(0.11 -0.11)">
       <use xlink:href="#ArialMT-49"/>
       <use x="55.615234" xlink:href="#ArialMT-46"/>
       <use x="83.398438" xlink:href="#ArialMT-53"/>
      </g>
     </g>
    </g>
    <g id="xtick_5">
     <g id="line2d_5">
      <path clip-path="url(#p605ead5782)" d="M 223.028779 252 
L 223.028779 34.56 
" style="fill:none;stroke:#ffffff;stroke-linecap:round;"/>
     </g>
     <g id="text_5">
      <!-- 2.0 -->
      <defs>
       <path d="M 50.34375 8.453125 
L 50.34375 0 
L 3.03125 0 
Q 2.9375 3.171875 4.046875 6.109375 
Q 5.859375 10.9375 9.828125 15.625 
Q 13.8125 20.3125 21.34375 26.46875 
Q 33.015625 36.03125 37.109375 41.625 
Q 41.21875 47.21875 41.21875 52.203125 
Q 41.21875 57.421875 37.46875 61 
Q 33.734375 64.59375 27.734375 64.59375 
Q 21.390625 64.59375 17.578125 60.78125 
Q 13.765625 56.984375 13.71875 50.25 
L 4.6875 51.171875 
Q 5.609375 61.28125 11.65625 66.578125 
Q 17.71875 71.875 27.9375 71.875 
Q 38.234375 71.875 44.234375 66.15625 
Q 50.25 60.453125 50.25 52 
Q 50.25 47.703125 48.484375 43.546875 
Q 46.734375 39.40625 42.65625 34.8125 
Q 38.578125 30.21875 29.109375 22.21875 
Q 21.1875 15.578125 18.9375 13.203125 
Q 16.703125 10.84375 15.234375 8.453125 
z
" id="ArialMT-50"/>
      </defs>
      <g style="fill:#262626;" transform="translate(215.383779 269.373594)scale(0.11 -0.11)">
       <use xlink:href="#ArialMT-50"/>
       <use x="55.615234" xlink:href="#ArialMT-46"/>
       <use x="83.398438" xlink:href="#ArialMT-48"/>
      </g>
     </g>
    </g>
    <g id="xtick_6">
     <g id="line2d_6">
      <path clip-path="url(#p605ead5782)" d="M 261.481428 252 
L 261.481428 34.56 
" style="fill:none;stroke:#ffffff;stroke-linecap:round;"/>
     </g>
     <g id="text_6">
      <!-- 2.5 -->
      <g style="fill:#262626;" transform="translate(253.836428 269.373594)scale(0.11 -0.11)">
       <use xlink:href="#ArialMT-50"/>
       <use x="55.615234" xlink:href="#ArialMT-46"/>
       <use x="83.398438" xlink:href="#ArialMT-53"/>
      </g>
     </g>
    </g>
    <g id="xtick_7">
     <g id="line2d_7">
      <path clip-path="url(#p605ead5782)" d="M 299.934078 252 
L 299.934078 34.56 
" style="fill:none;stroke:#ffffff;stroke-linecap:round;"/>
     </g>
     <g id="text_7">
      <!-- 3.0 -->
      <defs>
       <path d="M 4.203125 18.890625 
L 12.984375 20.0625 
Q 14.5 12.59375 18.140625 9.296875 
Q 21.78125 6 27 6 
Q 33.203125 6 37.46875 10.296875 
Q 41.75 14.59375 41.75 20.953125 
Q 41.75 27 37.796875 30.921875 
Q 33.84375 34.859375 27.734375 34.859375 
Q 25.25 34.859375 21.53125 33.890625 
L 22.515625 41.609375 
Q 23.390625 41.5 23.921875 41.5 
Q 29.546875 41.5 34.03125 44.421875 
Q 38.53125 47.359375 38.53125 53.46875 
Q 38.53125 58.296875 35.25 61.46875 
Q 31.984375 64.65625 26.8125 64.65625 
Q 21.6875 64.65625 18.265625 61.421875 
Q 14.84375 58.203125 13.875 51.765625 
L 5.078125 53.328125 
Q 6.6875 62.15625 12.390625 67.015625 
Q 18.109375 71.875 26.609375 71.875 
Q 32.46875 71.875 37.390625 69.359375 
Q 42.328125 66.84375 44.9375 62.5 
Q 47.5625 58.15625 47.5625 53.265625 
Q 47.5625 48.640625 45.0625 44.828125 
Q 42.578125 41.015625 37.703125 38.765625 
Q 44.046875 37.3125 47.5625 32.6875 
Q 51.078125 28.078125 51.078125 21.140625 
Q 51.078125 11.765625 44.234375 5.25 
Q 37.40625 -1.265625 26.953125 -1.265625 
Q 17.53125 -1.265625 11.296875 4.34375 
Q 5.078125 9.96875 4.203125 18.890625 
z
" id="ArialMT-51"/>
      </defs>
      <g style="fill:#262626;" transform="translate(292.289078 269.373594)scale(0.11 -0.11)">
       <use xlink:href="#ArialMT-51"/>
       <use x="55.615234" xlink:href="#ArialMT-46"/>
       <use x="83.398438" xlink:href="#ArialMT-48"/>
      </g>
     </g>
    </g>
    <g id="xtick_8">
     <g id="line2d_8">
      <path clip-path="url(#p605ead5782)" d="M 338.386727 252 
L 338.386727 34.56 
" style="fill:none;stroke:#ffffff;stroke-linecap:round;"/>
     </g>
     <g id="text_8">
      <!-- 3.5 -->
      <g style="fill:#262626;" transform="translate(330.741727 269.373594)scale(0.11 -0.11)">
       <use xlink:href="#ArialMT-51"/>
       <use x="55.615234" xlink:href="#ArialMT-46"/>
       <use x="83.398438" xlink:href="#ArialMT-53"/>
      </g>
     </g>
    </g>
    <g id="xtick_9">
     <g id="line2d_9">
      <path clip-path="url(#p605ead5782)" d="M 376.839376 252 
L 376.839376 34.56 
" style="fill:none;stroke:#ffffff;stroke-linecap:round;"/>
     </g>
     <g id="text_9">
      <!-- 4.0 -->
      <defs>
       <path d="M 32.328125 0 
L 32.328125 17.140625 
L 1.265625 17.140625 
L 1.265625 25.203125 
L 33.9375 71.578125 
L 41.109375 71.578125 
L 41.109375 25.203125 
L 50.78125 25.203125 
L 50.78125 17.140625 
L 41.109375 17.140625 
L 41.109375 0 
z
M 32.328125 25.203125 
L 32.328125 57.46875 
L 9.90625 25.203125 
z
" id="ArialMT-52"/>
      </defs>
      <g style="fill:#262626;" transform="translate(369.194376 269.373594)scale(0.11 -0.11)">
       <use xlink:href="#ArialMT-52"/>
       <use x="55.615234" xlink:href="#ArialMT-46"/>
       <use x="83.398438" xlink:href="#ArialMT-48"/>
      </g>
     </g>
    </g>
   </g>
   <g id="matplotlib.axis_2">
    <g id="ytick_1">
     <g id="line2d_10">
      <path clip-path="url(#p605ead5782)" d="M 54 242.116364 
L 388.8 242.116364 
" style="fill:none;stroke:#ffffff;stroke-linecap:round;"/>
     </g>
     <g id="text_10">
      <!-- 0 -->
      <g style="fill:#262626;" transform="translate(38.382969 246.053161)scale(0.11 -0.11)">
       <use xlink:href="#ArialMT-48"/>
      </g>
     </g>
    </g>
    <g id="ytick_2">
     <g id="line2d_11">
      <path clip-path="url(#p605ead5782)" d="M 54 195.810436 
L 388.8 195.810436 
" style="fill:none;stroke:#ffffff;stroke-linecap:round;"/>
     </g>
     <g id="text_11">
      <!-- 1 -->
      <g style="fill:#262626;" transform="translate(38.382969 199.747233)scale(0.11 -0.11)">
       <use xlink:href="#ArialMT-49"/>
      </g>
     </g>
    </g>
    <g id="ytick_3">
     <g id="line2d_12">
      <path clip-path="url(#p605ead5782)" d="M 54 149.504508 
L 388.8 149.504508 
" style="fill:none;stroke:#ffffff;stroke-linecap:round;"/>
     </g>
     <g id="text_12">
      <!-- 2 -->
      <g style="fill:#262626;" transform="translate(38.382969 153.441305)scale(0.11 -0.11)">
       <use xlink:href="#ArialMT-50"/>
      </g>
     </g>
    </g>
    <g id="ytick_4">
     <g id="line2d_13">
      <path clip-path="url(#p605ead5782)" d="M 54 103.198581 
L 388.8 103.198581 
" style="fill:none;stroke:#ffffff;stroke-linecap:round;"/>
     </g>
     <g id="text_13">
      <!-- 3 -->
      <g style="fill:#262626;" transform="translate(38.382969 107.135378)scale(0.11 -0.11)">
       <use xlink:href="#ArialMT-51"/>
      </g>
     </g>
    </g>
    <g id="ytick_5">
     <g id="line2d_14">
      <path clip-path="url(#p605ead5782)" d="M 54 56.892653 
L 388.8 56.892653 
" style="fill:none;stroke:#ffffff;stroke-linecap:round;"/>
     </g>
     <g id="text_14">
      <!-- 4 -->
      <g style="fill:#262626;" transform="translate(38.382969 60.82945)scale(0.11 -0.11)">
       <use xlink:href="#ArialMT-52"/>
      </g>
     </g>
    </g>
   </g>
   <g id="PathCollection_1">
    <defs>
     <path d="M 0 2.236068 
C 0.593012 2.236068 1.161816 2.000462 1.581139 1.581139 
C 2.000462 1.161816 2.236068 0.593012 2.236068 0 
C 2.236068 -0.593012 2.000462 -1.161816 1.581139 -1.581139 
C 1.161816 -2.000462 0.593012 -2.236068 0 -2.236068 
C -0.593012 -2.236068 -1.161816 -2.000462 -1.581139 -1.581139 
C -2.000462 -1.161816 -2.236068 -0.593012 -2.236068 0 
C -2.236068 0.593012 -2.000462 1.161816 -1.581139 1.581139 
C -1.161816 2.000462 -0.593012 2.236068 0 2.236068 
z
" id="m29d7253c5e" style="stroke:#ff6347;stroke-opacity:0.5;"/>
    </defs>
    <g clip-path="url(#p605ead5782)">
     <use style="fill:#ff6347;fill-opacity:0.5;stroke:#ff6347;stroke-opacity:0.5;" x="115.121641" xlink:href="#m29d7253c5e" y="221.263766"/>
     <use style="fill:#ff6347;fill-opacity:0.5;stroke:#ff6347;stroke-opacity:0.5;" x="90.884297" xlink:href="#m29d7253c5e" y="235.932672"/>
     <use style="fill:#ff6347;fill-opacity:0.5;stroke:#ff6347;stroke-opacity:0.5;" x="77.507877" xlink:href="#m29d7253c5e" y="242.116364"/>
     <use style="fill:#ff6347;fill-opacity:0.5;stroke:#ff6347;stroke-opacity:0.5;" x="70.905886" xlink:href="#m29d7253c5e" y="242.116364"/>
     <use style="fill:#ff6347;fill-opacity:0.5;stroke:#ff6347;stroke-opacity:0.5;" x="129.404062" xlink:href="#m29d7253c5e" y="234.280845"/>
     <use style="fill:#ff6347;fill-opacity:0.5;stroke:#ff6347;stroke-opacity:0.5;" x="77.728113" xlink:href="#m29d7253c5e" y="241.784468"/>
     <use style="fill:#ff6347;fill-opacity:0.5;stroke:#ff6347;stroke-opacity:0.5;" x="69.218182" xlink:href="#m29d7253c5e" y="203.536736"/>
     <use style="fill:#ff6347;fill-opacity:0.5;stroke:#ff6347;stroke-opacity:0.5;" x="218.951351" xlink:href="#m29d7253c5e" y="238.194598"/>
     <use style="fill:#ff6347;fill-opacity:0.5;stroke:#ff6347;stroke-opacity:0.5;" x="69.218182" xlink:href="#m29d7253c5e" y="241.659683"/>
     <use style="fill:#ff6347;fill-opacity:0.5;stroke:#ff6347;stroke-opacity:0.5;" x="155.753374" xlink:href="#m29d7253c5e" y="242.116364"/>
     <use style="fill:#ff6347;fill-opacity:0.5;stroke:#ff6347;stroke-opacity:0.5;" x="69.218182" xlink:href="#m29d7253c5e" y="241.029304"/>
     <use style="fill:#ff6347;fill-opacity:0.5;stroke:#ff6347;stroke-opacity:0.5;" x="73.953048" xlink:href="#m29d7253c5e" y="223.072845"/>
     <use style="fill:#ff6347;fill-opacity:0.5;stroke:#ff6347;stroke-opacity:0.5;" x="88.943601" xlink:href="#m29d7253c5e" y="241.504666"/>
     <use style="fill:#ff6347;fill-opacity:0.5;stroke:#ff6347;stroke-opacity:0.5;" x="76.59254" xlink:href="#m29d7253c5e" y="233.6104"/>
     <use style="fill:#ff6347;fill-opacity:0.5;stroke:#ff6347;stroke-opacity:0.5;" x="146.705702" xlink:href="#m29d7253c5e" y="242.116364"/>
     <use style="fill:#ff6347;fill-opacity:0.5;stroke:#ff6347;stroke-opacity:0.5;" x="76.608849" xlink:href="#m29d7253c5e" y="209.882065"/>
     <use style="fill:#ff6347;fill-opacity:0.5;stroke:#ff6347;stroke-opacity:0.5;" x="112.978148" xlink:href="#m29d7253c5e" y="240.715336"/>
     <use style="fill:#ff6347;fill-opacity:0.5;stroke:#ff6347;stroke-opacity:0.5;" x="108.349973" xlink:href="#m29d7253c5e" y="242.116364"/>
     <use style="fill:#ff6347;fill-opacity:0.5;stroke:#ff6347;stroke-opacity:0.5;" x="70.656158" xlink:href="#m29d7253c5e" y="206.075346"/>
     <use style="fill:#ff6347;fill-opacity:0.5;stroke:#ff6347;stroke-opacity:0.5;" x="69.218182" xlink:href="#m29d7253c5e" y="242.116364"/>
     <use style="fill:#ff6347;fill-opacity:0.5;stroke:#ff6347;stroke-opacity:0.5;" x="265.322809" xlink:href="#m29d7253c5e" y="242.116364"/>
     <use style="fill:#ff6347;fill-opacity:0.5;stroke:#ff6347;stroke-opacity:0.5;" x="125.516671" xlink:href="#m29d7253c5e" y="239.61836"/>
     <use style="fill:#ff6347;fill-opacity:0.5;stroke:#ff6347;stroke-opacity:0.5;" x="99.110324" xlink:href="#m29d7253c5e" y="238.078042"/>
     <use style="fill:#ff6347;fill-opacity:0.5;stroke:#ff6347;stroke-opacity:0.5;" x="81.096577" xlink:href="#m29d7253c5e" y="242.116364"/>
     <use style="fill:#ff6347;fill-opacity:0.5;stroke:#ff6347;stroke-opacity:0.5;" x="102.623373" xlink:href="#m29d7253c5e" y="227.899698"/>
     <use style="fill:#ff6347;fill-opacity:0.5;stroke:#ff6347;stroke-opacity:0.5;" x="86.697032" xlink:href="#m29d7253c5e" y="235.777511"/>
     <use style="fill:#ff6347;fill-opacity:0.5;stroke:#ff6347;stroke-opacity:0.5;" x="77.212082" xlink:href="#m29d7253c5e" y="224.426838"/>
     <use style="fill:#ff6347;fill-opacity:0.5;stroke:#ff6347;stroke-opacity:0.5;" x="78.56239" xlink:href="#m29d7253c5e" y="220.059488"/>
     <use style="fill:#ff6347;fill-opacity:0.5;stroke:#ff6347;stroke-opacity:0.5;" x="108.590379" xlink:href="#m29d7253c5e" y="241.158878"/>
     <use style="fill:#ff6347;fill-opacity:0.5;stroke:#ff6347;stroke-opacity:0.5;" x="69.218182" xlink:href="#m29d7253c5e" y="240.504388"/>
     <use style="fill:#ff6347;fill-opacity:0.5;stroke:#ff6347;stroke-opacity:0.5;" x="69.218182" xlink:href="#m29d7253c5e" y="234.460665"/>
     <use style="fill:#ff6347;fill-opacity:0.5;stroke:#ff6347;stroke-opacity:0.5;" x="71.448276" xlink:href="#m29d7253c5e" y="236.111013"/>
     <use style="fill:#ff6347;fill-opacity:0.5;stroke:#ff6347;stroke-opacity:0.5;" x="81.285472" xlink:href="#m29d7253c5e" y="207.908806"/>
     <use style="fill:#ff6347;fill-opacity:0.5;stroke:#ff6347;stroke-opacity:0.5;" x="69.218182" xlink:href="#m29d7253c5e" y="242.116364"/>
     <use style="fill:#ff6347;fill-opacity:0.5;stroke:#ff6347;stroke-opacity:0.5;" x="69.218182" xlink:href="#m29d7253c5e" y="241.046592"/>
     <use style="fill:#ff6347;fill-opacity:0.5;stroke:#ff6347;stroke-opacity:0.5;" x="69.218182" xlink:href="#m29d7253c5e" y="240.681898"/>
     <use style="fill:#ff6347;fill-opacity:0.5;stroke:#ff6347;stroke-opacity:0.5;" x="69.218182" xlink:href="#m29d7253c5e" y="221.705092"/>
     <use style="fill:#ff6347;fill-opacity:0.5;stroke:#ff6347;stroke-opacity:0.5;" x="95.921625" xlink:href="#m29d7253c5e" y="242.116364"/>
     <use style="fill:#ff6347;fill-opacity:0.5;stroke:#ff6347;stroke-opacity:0.5;" x="93.647418" xlink:href="#m29d7253c5e" y="239.2335"/>
     <use style="fill:#ff6347;fill-opacity:0.5;stroke:#ff6347;stroke-opacity:0.5;" x="90.874432" xlink:href="#m29d7253c5e" y="236.785689"/>
     <use style="fill:#ff6347;fill-opacity:0.5;stroke:#ff6347;stroke-opacity:0.5;" x="69.218182" xlink:href="#m29d7253c5e" y="241.488387"/>
     <use style="fill:#ff6347;fill-opacity:0.5;stroke:#ff6347;stroke-opacity:0.5;" x="69.218182" xlink:href="#m29d7253c5e" y="221.324239"/>
     <use style="fill:#ff6347;fill-opacity:0.5;stroke:#ff6347;stroke-opacity:0.5;" x="126.098814" xlink:href="#m29d7253c5e" y="240.455462"/>
     <use style="fill:#ff6347;fill-opacity:0.5;stroke:#ff6347;stroke-opacity:0.5;" x="69.218182" xlink:href="#m29d7253c5e" y="242.116364"/>
     <use style="fill:#ff6347;fill-opacity:0.5;stroke:#ff6347;stroke-opacity:0.5;" x="94.738986" xlink:href="#m29d7253c5e" y="229.5456"/>
     <use style="fill:#ff6347;fill-opacity:0.5;stroke:#ff6347;stroke-opacity:0.5;" x="130.908853" xlink:href="#m29d7253c5e" y="219.670517"/>
     <use style="fill:#ff6347;fill-opacity:0.5;stroke:#ff6347;stroke-opacity:0.5;" x="78.828169" xlink:href="#m29d7253c5e" y="226.693745"/>
     <use style="fill:#ff6347;fill-opacity:0.5;stroke:#ff6347;stroke-opacity:0.5;" x="87.874448" xlink:href="#m29d7253c5e" y="241.673753"/>
     <use style="fill:#ff6347;fill-opacity:0.5;stroke:#ff6347;stroke-opacity:0.5;" x="69.218182" xlink:href="#m29d7253c5e" y="242.116364"/>
     <use style="fill:#ff6347;fill-opacity:0.5;stroke:#ff6347;stroke-opacity:0.5;" x="69.218182" xlink:href="#m29d7253c5e" y="242.116364"/>
     <use style="fill:#ff6347;fill-opacity:0.5;stroke:#ff6347;stroke-opacity:0.5;" x="78.100338" xlink:href="#m29d7253c5e" y="237.816595"/>
     <use style="fill:#ff6347;fill-opacity:0.5;stroke:#ff6347;stroke-opacity:0.5;" x="75.729331" xlink:href="#m29d7253c5e" y="241.196175"/>
     <use style="fill:#ff6347;fill-opacity:0.5;stroke:#ff6347;stroke-opacity:0.5;" x="78.480629" xlink:href="#m29d7253c5e" y="240.702685"/>
     <use style="fill:#ff6347;fill-opacity:0.5;stroke:#ff6347;stroke-opacity:0.5;" x="70.915201" xlink:href="#m29d7253c5e" y="240.845306"/>
     <use style="fill:#ff6347;fill-opacity:0.5;stroke:#ff6347;stroke-opacity:0.5;" x="103.049403" xlink:href="#m29d7253c5e" y="238.196329"/>
     <use style="fill:#ff6347;fill-opacity:0.5;stroke:#ff6347;stroke-opacity:0.5;" x="133.106952" xlink:href="#m29d7253c5e" y="238.428621"/>
     <use style="fill:#ff6347;fill-opacity:0.5;stroke:#ff6347;stroke-opacity:0.5;" x="104.711958" xlink:href="#m29d7253c5e" y="241.640914"/>
     <use style="fill:#ff6347;fill-opacity:0.5;stroke:#ff6347;stroke-opacity:0.5;" x="82.288204" xlink:href="#m29d7253c5e" y="230.224608"/>
     <use style="fill:#ff6347;fill-opacity:0.5;stroke:#ff6347;stroke-opacity:0.5;" x="75.359794" xlink:href="#m29d7253c5e" y="240.212413"/>
     <use style="fill:#ff6347;fill-opacity:0.5;stroke:#ff6347;stroke-opacity:0.5;" x="73.400926" xlink:href="#m29d7253c5e" y="235.485769"/>
     <use style="fill:#ff6347;fill-opacity:0.5;stroke:#ff6347;stroke-opacity:0.5;" x="104.034616" xlink:href="#m29d7253c5e" y="222.751304"/>
     <use style="fill:#ff6347;fill-opacity:0.5;stroke:#ff6347;stroke-opacity:0.5;" x="107.753423" xlink:href="#m29d7253c5e" y="207.166822"/>
     <use style="fill:#ff6347;fill-opacity:0.5;stroke:#ff6347;stroke-opacity:0.5;" x="95.141597" xlink:href="#m29d7253c5e" y="237.935278"/>
     <use style="fill:#ff6347;fill-opacity:0.5;stroke:#ff6347;stroke-opacity:0.5;" x="87.911786" xlink:href="#m29d7253c5e" y="230.106696"/>
     <use style="fill:#ff6347;fill-opacity:0.5;stroke:#ff6347;stroke-opacity:0.5;" x="118.040136" xlink:href="#m29d7253c5e" y="237.184023"/>
     <use style="fill:#ff6347;fill-opacity:0.5;stroke:#ff6347;stroke-opacity:0.5;" x="373.581818" xlink:href="#m29d7253c5e" y="242.116364"/>
     <use style="fill:#ff6347;fill-opacity:0.5;stroke:#ff6347;stroke-opacity:0.5;" x="94.919299" xlink:href="#m29d7253c5e" y="239.960408"/>
     <use style="fill:#ff6347;fill-opacity:0.5;stroke:#ff6347;stroke-opacity:0.5;" x="69.218182" xlink:href="#m29d7253c5e" y="242.116364"/>
     <use style="fill:#ff6347;fill-opacity:0.5;stroke:#ff6347;stroke-opacity:0.5;" x="138.961072" xlink:href="#m29d7253c5e" y="225.905906"/>
     <use style="fill:#ff6347;fill-opacity:0.5;stroke:#ff6347;stroke-opacity:0.5;" x="69.218182" xlink:href="#m29d7253c5e" y="221.239431"/>
     <use style="fill:#ff6347;fill-opacity:0.5;stroke:#ff6347;stroke-opacity:0.5;" x="79.456661" xlink:href="#m29d7253c5e" y="217.435294"/>
     <use style="fill:#ff6347;fill-opacity:0.5;stroke:#ff6347;stroke-opacity:0.5;" x="103.702854" xlink:href="#m29d7253c5e" y="239.786141"/>
     <use style="fill:#ff6347;fill-opacity:0.5;stroke:#ff6347;stroke-opacity:0.5;" x="193.61681" xlink:href="#m29d7253c5e" y="239.955555"/>
     <use style="fill:#ff6347;fill-opacity:0.5;stroke:#ff6347;stroke-opacity:0.5;" x="74.564328" xlink:href="#m29d7253c5e" y="220.756195"/>
     <use style="fill:#ff6347;fill-opacity:0.5;stroke:#ff6347;stroke-opacity:0.5;" x="283.731054" xlink:href="#m29d7253c5e" y="233.192982"/>
     <use style="fill:#ff6347;fill-opacity:0.5;stroke:#ff6347;stroke-opacity:0.5;" x="69.218182" xlink:href="#m29d7253c5e" y="242.116364"/>
     <use style="fill:#ff6347;fill-opacity:0.5;stroke:#ff6347;stroke-opacity:0.5;" x="71.020655" xlink:href="#m29d7253c5e" y="233.282325"/>
     <use style="fill:#ff6347;fill-opacity:0.5;stroke:#ff6347;stroke-opacity:0.5;" x="103.144724" xlink:href="#m29d7253c5e" y="234.743677"/>
     <use style="fill:#ff6347;fill-opacity:0.5;stroke:#ff6347;stroke-opacity:0.5;" x="78.9517" xlink:href="#m29d7253c5e" y="228.186716"/>
     <use style="fill:#ff6347;fill-opacity:0.5;stroke:#ff6347;stroke-opacity:0.5;" x="171.430492" xlink:href="#m29d7253c5e" y="242.116364"/>
     <use style="fill:#ff6347;fill-opacity:0.5;stroke:#ff6347;stroke-opacity:0.5;" x="103.883163" xlink:href="#m29d7253c5e" y="228.358212"/>
     <use style="fill:#ff6347;fill-opacity:0.5;stroke:#ff6347;stroke-opacity:0.5;" x="69.218182" xlink:href="#m29d7253c5e" y="241.501598"/>
     <use style="fill:#ff6347;fill-opacity:0.5;stroke:#ff6347;stroke-opacity:0.5;" x="103.176936" xlink:href="#m29d7253c5e" y="223.367124"/>
     <use style="fill:#ff6347;fill-opacity:0.5;stroke:#ff6347;stroke-opacity:0.5;" x="69.218182" xlink:href="#m29d7253c5e" y="242.116364"/>
     <use style="fill:#ff6347;fill-opacity:0.5;stroke:#ff6347;stroke-opacity:0.5;" x="69.218182" xlink:href="#m29d7253c5e" y="226.291097"/>
     <use style="fill:#ff6347;fill-opacity:0.5;stroke:#ff6347;stroke-opacity:0.5;" x="138.234896" xlink:href="#m29d7253c5e" y="182.899396"/>
     <use style="fill:#ff6347;fill-opacity:0.5;stroke:#ff6347;stroke-opacity:0.5;" x="69.218182" xlink:href="#m29d7253c5e" y="239.548679"/>
     <use style="fill:#ff6347;fill-opacity:0.5;stroke:#ff6347;stroke-opacity:0.5;" x="75.060805" xlink:href="#m29d7253c5e" y="230.389073"/>
     <use style="fill:#ff6347;fill-opacity:0.5;stroke:#ff6347;stroke-opacity:0.5;" x="89.173784" xlink:href="#m29d7253c5e" y="242.116364"/>
     <use style="fill:#ff6347;fill-opacity:0.5;stroke:#ff6347;stroke-opacity:0.5;" x="84.733185" xlink:href="#m29d7253c5e" y="240.764593"/>
     <use style="fill:#ff6347;fill-opacity:0.5;stroke:#ff6347;stroke-opacity:0.5;" x="112.388187" xlink:href="#m29d7253c5e" y="241.732262"/>
     <use style="fill:#ff6347;fill-opacity:0.5;stroke:#ff6347;stroke-opacity:0.5;" x="82.232525" xlink:href="#m29d7253c5e" y="195.127118"/>
     <use style="fill:#ff6347;fill-opacity:0.5;stroke:#ff6347;stroke-opacity:0.5;" x="69.949506" xlink:href="#m29d7253c5e" y="233.401688"/>
     <use style="fill:#ff6347;fill-opacity:0.5;stroke:#ff6347;stroke-opacity:0.5;" x="69.218182" xlink:href="#m29d7253c5e" y="220.684775"/>
     <use style="fill:#ff6347;fill-opacity:0.5;stroke:#ff6347;stroke-opacity:0.5;" x="72.307362" xlink:href="#m29d7253c5e" y="241.844822"/>
     <use style="fill:#ff6347;fill-opacity:0.5;stroke:#ff6347;stroke-opacity:0.5;" x="69.218182" xlink:href="#m29d7253c5e" y="240.743129"/>
     <use style="fill:#ff6347;fill-opacity:0.5;stroke:#ff6347;stroke-opacity:0.5;" x="69.218182" xlink:href="#m29d7253c5e" y="242.116364"/>
     <use style="fill:#ff6347;fill-opacity:0.5;stroke:#ff6347;stroke-opacity:0.5;" x="209.770842" xlink:href="#m29d7253c5e" y="234.12053"/>
     <use style="fill:#ff6347;fill-opacity:0.5;stroke:#ff6347;stroke-opacity:0.5;" x="74.26132" xlink:href="#m29d7253c5e" y="242.116364"/>
     <use style="fill:#ff6347;fill-opacity:0.5;stroke:#ff6347;stroke-opacity:0.5;" x="76.179553" xlink:href="#m29d7253c5e" y="230.672992"/>
     <use style="fill:#ff6347;fill-opacity:0.5;stroke:#ff6347;stroke-opacity:0.5;" x="114.816884" xlink:href="#m29d7253c5e" y="238.507023"/>
     <use style="fill:#ff6347;fill-opacity:0.5;stroke:#ff6347;stroke-opacity:0.5;" x="131.792189" xlink:href="#m29d7253c5e" y="242.116364"/>
     <use style="fill:#ff6347;fill-opacity:0.5;stroke:#ff6347;stroke-opacity:0.5;" x="69.218182" xlink:href="#m29d7253c5e" y="235.179311"/>
     <use style="fill:#ff6347;fill-opacity:0.5;stroke:#ff6347;stroke-opacity:0.5;" x="69.218182" xlink:href="#m29d7253c5e" y="194.704353"/>
     <use style="fill:#ff6347;fill-opacity:0.5;stroke:#ff6347;stroke-opacity:0.5;" x="83.783886" xlink:href="#m29d7253c5e" y="231.256769"/>
     <use style="fill:#ff6347;fill-opacity:0.5;stroke:#ff6347;stroke-opacity:0.5;" x="69.218182" xlink:href="#m29d7253c5e" y="240.427649"/>
     <use style="fill:#ff6347;fill-opacity:0.5;stroke:#ff6347;stroke-opacity:0.5;" x="108.832965" xlink:href="#m29d7253c5e" y="183.800021"/>
     <use style="fill:#ff6347;fill-opacity:0.5;stroke:#ff6347;stroke-opacity:0.5;" x="96.780017" xlink:href="#m29d7253c5e" y="238.131965"/>
     <use style="fill:#ff6347;fill-opacity:0.5;stroke:#ff6347;stroke-opacity:0.5;" x="115.779607" xlink:href="#m29d7253c5e" y="242.116364"/>
     <use style="fill:#ff6347;fill-opacity:0.5;stroke:#ff6347;stroke-opacity:0.5;" x="125.295352" xlink:href="#m29d7253c5e" y="239.195742"/>
     <use style="fill:#ff6347;fill-opacity:0.5;stroke:#ff6347;stroke-opacity:0.5;" x="80.08208" xlink:href="#m29d7253c5e" y="242.116364"/>
     <use style="fill:#ff6347;fill-opacity:0.5;stroke:#ff6347;stroke-opacity:0.5;" x="71.235072" xlink:href="#m29d7253c5e" y="240.281487"/>
     <use style="fill:#ff6347;fill-opacity:0.5;stroke:#ff6347;stroke-opacity:0.5;" x="98.157539" xlink:href="#m29d7253c5e" y="205.499673"/>
     <use style="fill:#ff6347;fill-opacity:0.5;stroke:#ff6347;stroke-opacity:0.5;" x="80.952688" xlink:href="#m29d7253c5e" y="226.09461"/>
     <use style="fill:#ff6347;fill-opacity:0.5;stroke:#ff6347;stroke-opacity:0.5;" x="110.116873" xlink:href="#m29d7253c5e" y="230.195343"/>
     <use style="fill:#ff6347;fill-opacity:0.5;stroke:#ff6347;stroke-opacity:0.5;" x="106.366672" xlink:href="#m29d7253c5e" y="241.060447"/>
     <use style="fill:#ff6347;fill-opacity:0.5;stroke:#ff6347;stroke-opacity:0.5;" x="93.186495" xlink:href="#m29d7253c5e" y="234.689886"/>
     <use style="fill:#ff6347;fill-opacity:0.5;stroke:#ff6347;stroke-opacity:0.5;" x="84.101128" xlink:href="#m29d7253c5e" y="222.324072"/>
     <use style="fill:#ff6347;fill-opacity:0.5;stroke:#ff6347;stroke-opacity:0.5;" x="69.218182" xlink:href="#m29d7253c5e" y="242.116364"/>
     <use style="fill:#ff6347;fill-opacity:0.5;stroke:#ff6347;stroke-opacity:0.5;" x="139.406888" xlink:href="#m29d7253c5e" y="237.39351"/>
     <use style="fill:#ff6347;fill-opacity:0.5;stroke:#ff6347;stroke-opacity:0.5;" x="95.096902" xlink:href="#m29d7253c5e" y="230.871594"/>
     <use style="fill:#ff6347;fill-opacity:0.5;stroke:#ff6347;stroke-opacity:0.5;" x="73.756364" xlink:href="#m29d7253c5e" y="237.94376"/>
     <use style="fill:#ff6347;fill-opacity:0.5;stroke:#ff6347;stroke-opacity:0.5;" x="91.015235" xlink:href="#m29d7253c5e" y="240.075421"/>
     <use style="fill:#ff6347;fill-opacity:0.5;stroke:#ff6347;stroke-opacity:0.5;" x="113.705478" xlink:href="#m29d7253c5e" y="234.98191"/>
     <use style="fill:#ff6347;fill-opacity:0.5;stroke:#ff6347;stroke-opacity:0.5;" x="76.493986" xlink:href="#m29d7253c5e" y="236.629097"/>
     <use style="fill:#ff6347;fill-opacity:0.5;stroke:#ff6347;stroke-opacity:0.5;" x="89.164642" xlink:href="#m29d7253c5e" y="235.05548"/>
     <use style="fill:#ff6347;fill-opacity:0.5;stroke:#ff6347;stroke-opacity:0.5;" x="174.453845" xlink:href="#m29d7253c5e" y="237.815888"/>
     <use style="fill:#ff6347;fill-opacity:0.5;stroke:#ff6347;stroke-opacity:0.5;" x="86.395503" xlink:href="#m29d7253c5e" y="233.474212"/>
     <use style="fill:#ff6347;fill-opacity:0.5;stroke:#ff6347;stroke-opacity:0.5;" x="76.033728" xlink:href="#m29d7253c5e" y="217.544065"/>
     <use style="fill:#ff6347;fill-opacity:0.5;stroke:#ff6347;stroke-opacity:0.5;" x="106.418331" xlink:href="#m29d7253c5e" y="242.116364"/>
     <use style="fill:#ff6347;fill-opacity:0.5;stroke:#ff6347;stroke-opacity:0.5;" x="71.696828" xlink:href="#m29d7253c5e" y="235.605537"/>
     <use style="fill:#ff6347;fill-opacity:0.5;stroke:#ff6347;stroke-opacity:0.5;" x="82.777736" xlink:href="#m29d7253c5e" y="238.366963"/>
     <use style="fill:#ff6347;fill-opacity:0.5;stroke:#ff6347;stroke-opacity:0.5;" x="88.399445" xlink:href="#m29d7253c5e" y="231.819873"/>
     <use style="fill:#ff6347;fill-opacity:0.5;stroke:#ff6347;stroke-opacity:0.5;" x="148.181714" xlink:href="#m29d7253c5e" y="242.116364"/>
     <use style="fill:#ff6347;fill-opacity:0.5;stroke:#ff6347;stroke-opacity:0.5;" x="115.694386" xlink:href="#m29d7253c5e" y="240.042814"/>
     <use style="fill:#ff6347;fill-opacity:0.5;stroke:#ff6347;stroke-opacity:0.5;" x="75.804079" xlink:href="#m29d7253c5e" y="227.974104"/>
     <use style="fill:#ff6347;fill-opacity:0.5;stroke:#ff6347;stroke-opacity:0.5;" x="69.218182" xlink:href="#m29d7253c5e" y="242.116364"/>
     <use style="fill:#ff6347;fill-opacity:0.5;stroke:#ff6347;stroke-opacity:0.5;" x="93.042171" xlink:href="#m29d7253c5e" y="233.241129"/>
     <use style="fill:#ff6347;fill-opacity:0.5;stroke:#ff6347;stroke-opacity:0.5;" x="69.763343" xlink:href="#m29d7253c5e" y="215.407553"/>
     <use style="fill:#ff6347;fill-opacity:0.5;stroke:#ff6347;stroke-opacity:0.5;" x="92.025339" xlink:href="#m29d7253c5e" y="208.607213"/>
     <use style="fill:#ff6347;fill-opacity:0.5;stroke:#ff6347;stroke-opacity:0.5;" x="103.796661" xlink:href="#m29d7253c5e" y="227.173906"/>
     <use style="fill:#ff6347;fill-opacity:0.5;stroke:#ff6347;stroke-opacity:0.5;" x="96.120737" xlink:href="#m29d7253c5e" y="242.116364"/>
     <use style="fill:#ff6347;fill-opacity:0.5;stroke:#ff6347;stroke-opacity:0.5;" x="69.218182" xlink:href="#m29d7253c5e" y="242.116364"/>
     <use style="fill:#ff6347;fill-opacity:0.5;stroke:#ff6347;stroke-opacity:0.5;" x="69.218182" xlink:href="#m29d7253c5e" y="241.273349"/>
     <use style="fill:#ff6347;fill-opacity:0.5;stroke:#ff6347;stroke-opacity:0.5;" x="204.430468" xlink:href="#m29d7253c5e" y="238.359068"/>
     <use style="fill:#ff6347;fill-opacity:0.5;stroke:#ff6347;stroke-opacity:0.5;" x="69.218182" xlink:href="#m29d7253c5e" y="239.067753"/>
     <use style="fill:#ff6347;fill-opacity:0.5;stroke:#ff6347;stroke-opacity:0.5;" x="104.614192" xlink:href="#m29d7253c5e" y="239.466145"/>
     <use style="fill:#ff6347;fill-opacity:0.5;stroke:#ff6347;stroke-opacity:0.5;" x="102.880334" xlink:href="#m29d7253c5e" y="239.27942"/>
     <use style="fill:#ff6347;fill-opacity:0.5;stroke:#ff6347;stroke-opacity:0.5;" x="128.6124" xlink:href="#m29d7253c5e" y="224.896346"/>
     <use style="fill:#ff6347;fill-opacity:0.5;stroke:#ff6347;stroke-opacity:0.5;" x="86.288768" xlink:href="#m29d7253c5e" y="215.34337"/>
     <use style="fill:#ff6347;fill-opacity:0.5;stroke:#ff6347;stroke-opacity:0.5;" x="292.116371" xlink:href="#m29d7253c5e" y="242.116364"/>
     <use style="fill:#ff6347;fill-opacity:0.5;stroke:#ff6347;stroke-opacity:0.5;" x="108.873478" xlink:href="#m29d7253c5e" y="235.479823"/>
     <use style="fill:#ff6347;fill-opacity:0.5;stroke:#ff6347;stroke-opacity:0.5;" x="71.15702" xlink:href="#m29d7253c5e" y="231.691067"/>
     <use style="fill:#ff6347;fill-opacity:0.5;stroke:#ff6347;stroke-opacity:0.5;" x="69.218182" xlink:href="#m29d7253c5e" y="189.561634"/>
     <use style="fill:#ff6347;fill-opacity:0.5;stroke:#ff6347;stroke-opacity:0.5;" x="69.218182" xlink:href="#m29d7253c5e" y="241.548213"/>
    </g>
   </g>
   <g id="PathCollection_2">
    <defs>
     <path d="M -5 5 
L 5 -5 
M -5 -5 
L 5 5 
" id="m8dfcf45265" style="stroke:#ff6347;stroke-width:1.5;"/>
    </defs>
    <g clip-path="url(#p605ead5782)">
     <use style="fill:#ff6347;stroke:#ff6347;stroke-width:1.5;" x="98.683824" xlink:href="#m8dfcf45265" y="232.952142"/>
    </g>
   </g>
   <g id="PathCollection_3">
    <defs>
     <path d="M 0 2.236068 
C 0.593012 2.236068 1.161816 2.000462 1.581139 1.581139 
C 2.000462 1.161816 2.236068 0.593012 2.236068 0 
C 2.236068 -0.593012 2.000462 -1.161816 1.581139 -1.581139 
C 1.161816 -2.000462 0.593012 -2.236068 0 -2.236068 
C -0.593012 -2.236068 -1.161816 -2.000462 -1.581139 -1.581139 
C -2.000462 -1.161816 -2.236068 -0.593012 -2.236068 0 
C -2.236068 0.593012 -2.000462 1.161816 -1.581139 1.581139 
C -1.161816 2.000462 -0.593012 2.236068 0 2.236068 
z
" id="mfa53553fa1" style="stroke:#ffa500;stroke-opacity:0.5;"/>
    </defs>
    <g clip-path="url(#p605ead5782)">
     <use style="fill:#ffa500;fill-opacity:0.5;stroke:#ffa500;stroke-opacity:0.5;" x="69.218182" xlink:href="#mfa53553fa1" y="134.610549"/>
     <use style="fill:#ffa500;fill-opacity:0.5;stroke:#ffa500;stroke-opacity:0.5;" x="81.291856" xlink:href="#mfa53553fa1" y="44.443636"/>
     <use style="fill:#ffa500;fill-opacity:0.5;stroke:#ffa500;stroke-opacity:0.5;" x="72.493064" xlink:href="#mfa53553fa1" y="141.489882"/>
     <use style="fill:#ffa500;fill-opacity:0.5;stroke:#ffa500;stroke-opacity:0.5;" x="69.218182" xlink:href="#mfa53553fa1" y="78.082637"/>
     <use style="fill:#ffa500;fill-opacity:0.5;stroke:#ffa500;stroke-opacity:0.5;" x="69.218182" xlink:href="#mfa53553fa1" y="130.918809"/>
     <use style="fill:#ffa500;fill-opacity:0.5;stroke:#ffa500;stroke-opacity:0.5;" x="79.649363" xlink:href="#mfa53553fa1" y="138.459831"/>
     <use style="fill:#ffa500;fill-opacity:0.5;stroke:#ffa500;stroke-opacity:0.5;" x="71.309875" xlink:href="#mfa53553fa1" y="171.847375"/>
     <use style="fill:#ffa500;fill-opacity:0.5;stroke:#ffa500;stroke-opacity:0.5;" x="110.088324" xlink:href="#mfa53553fa1" y="161.312329"/>
     <use style="fill:#ffa500;fill-opacity:0.5;stroke:#ffa500;stroke-opacity:0.5;" x="84.923726" xlink:href="#mfa53553fa1" y="112.971334"/>
     <use style="fill:#ffa500;fill-opacity:0.5;stroke:#ffa500;stroke-opacity:0.5;" x="69.218182" xlink:href="#mfa53553fa1" y="100.161597"/>
     <use style="fill:#ffa500;fill-opacity:0.5;stroke:#ffa500;stroke-opacity:0.5;" x="73.698219" xlink:href="#mfa53553fa1" y="158.560025"/>
     <use style="fill:#ffa500;fill-opacity:0.5;stroke:#ffa500;stroke-opacity:0.5;" x="69.218182" xlink:href="#mfa53553fa1" y="131.478295"/>
     <use style="fill:#ffa500;fill-opacity:0.5;stroke:#ffa500;stroke-opacity:0.5;" x="69.532468" xlink:href="#mfa53553fa1" y="114.836877"/>
     <use style="fill:#ffa500;fill-opacity:0.5;stroke:#ffa500;stroke-opacity:0.5;" x="142.678971" xlink:href="#mfa53553fa1" y="172.782981"/>
     <use style="fill:#ffa500;fill-opacity:0.5;stroke:#ffa500;stroke-opacity:0.5;" x="78.322321" xlink:href="#mfa53553fa1" y="45.100789"/>
    </g>
   </g>
   <g id="PathCollection_4">
    <defs>
     <path d="M -5 5 
L 5 -5 
M -5 -5 
L 5 5 
" id="mee4525b848" style="stroke:#ffa500;stroke-width:1.5;"/>
    </defs>
    <g clip-path="url(#p605ead5782)">
     <use style="fill:#ffa500;stroke:#ffa500;stroke-width:1.5;" x="80.67194" xlink:href="#mee4525b848" y="122.470463"/>
    </g>
   </g>
   <g id="PathCollection_5">
    <defs>
     <path d="M 0 2.236068 
C 0.593012 2.236068 1.161816 2.000462 1.581139 1.581139 
C 2.000462 1.161816 2.236068 0.593012 2.236068 0 
C 2.236068 -0.593012 2.000462 -1.161816 1.581139 -1.581139 
C 1.161816 -2.000462 0.593012 -2.236068 0 -2.236068 
C -0.593012 -2.236068 -1.161816 -2.000462 -1.581139 -1.581139 
C -2.000462 -1.161816 -2.236068 -0.593012 -2.236068 0 
C -2.236068 0.593012 -2.000462 1.161816 -1.581139 1.581139 
C -1.161816 2.000462 -0.593012 2.236068 0 2.236068 
z
" id="m4c1bed18c0" style="stroke:#ffff00;stroke-opacity:0.5;"/>
    </defs>
    <g clip-path="url(#p605ead5782)">
     <use style="fill:#ffff00;fill-opacity:0.5;stroke:#ffff00;stroke-opacity:0.5;" x="69.218182" xlink:href="#m4c1bed18c0" y="242.116364"/>
    </g>
   </g>
   <g id="PathCollection_6">
    <defs>
     <path d="M -5 5 
L 5 -5 
M -5 -5 
L 5 5 
" id="mde71881787" style="stroke:#ffff00;stroke-width:1.5;"/>
    </defs>
    <g clip-path="url(#p605ead5782)">
     <use style="fill:#ffff00;stroke:#ffff00;stroke-width:1.5;" x="69.218182" xlink:href="#mde71881787" y="242.116364"/>
    </g>
   </g>
   <g id="PathCollection_7">
    <defs>
     <path d="M 0 2.236068 
C 0.593012 2.236068 1.161816 2.000462 1.581139 1.581139 
C 2.000462 1.161816 2.236068 0.593012 2.236068 0 
C 2.236068 -0.593012 2.000462 -1.161816 1.581139 -1.581139 
C 1.161816 -2.000462 0.593012 -2.236068 0 -2.236068 
C -0.593012 -2.236068 -1.161816 -2.000462 -1.581139 -1.581139 
C -2.000462 -1.161816 -2.236068 -0.593012 -2.236068 0 
C -2.236068 0.593012 -2.000462 1.161816 -1.581139 1.581139 
C -1.161816 2.000462 -0.593012 2.236068 0 2.236068 
z
" id="m8ece8918b7" style="stroke:#9acd32;stroke-opacity:0.5;"/>
    </defs>
    <g clip-path="url(#p605ead5782)">
     <use style="fill:#9acd32;fill-opacity:0.5;stroke:#9acd32;stroke-opacity:0.5;" x="101.259208" xlink:href="#m8ece8918b7" y="242.116364"/>
     <use style="fill:#9acd32;fill-opacity:0.5;stroke:#9acd32;stroke-opacity:0.5;" x="69.218182" xlink:href="#m8ece8918b7" y="242.116364"/>
    </g>
   </g>
   <g id="PathCollection_8">
    <defs>
     <path d="M -5 5 
L 5 -5 
M -5 -5 
L 5 5 
" id="m4ee912f481" style="stroke:#9acd32;stroke-width:1.5;"/>
    </defs>
    <g clip-path="url(#p605ead5782)">
     <use style="fill:#9acd32;stroke:#9acd32;stroke-width:1.5;" x="85.238695" xlink:href="#m4ee912f481" y="242.116364"/>
    </g>
   </g>
   <g id="patch_3">
    <path d="M 54 252 
L 54 34.56 
" style="fill:none;stroke:#000000;stroke-linecap:square;stroke-linejoin:miter;stroke-width:1.25;"/>
   </g>
   <g id="patch_4">
    <path d="M 388.8 252 
L 388.8 34.56 
" style="fill:none;stroke:#000000;stroke-linecap:square;stroke-linejoin:miter;stroke-width:1.25;"/>
   </g>
   <g id="patch_5">
    <path d="M 54 252 
L 388.8 252 
" style="fill:none;stroke:#000000;stroke-linecap:square;stroke-linejoin:miter;stroke-width:1.25;"/>
   </g>
   <g id="patch_6">
    <path d="M 54 34.56 
L 388.8 34.56 
" style="fill:none;stroke:#000000;stroke-linecap:square;stroke-linejoin:miter;stroke-width:1.25;"/>
   </g>
  </g>
 </g>
 <defs>
  <clipPath id="p605ead5782">
   <rect height="217.44" width="334.8" x="54" y="34.56"/>
  </clipPath>
 </defs>
</svg>
