<?xml version="1.0" encoding="utf-8" standalone="no"?>
<!DOCTYPE svg PUBLIC "-//W3C//DTD SVG 1.1//EN"
  "http://www.w3.org/Graphics/SVG/1.1/DTD/svg11.dtd">
<!-- Created with matplotlib (https://matplotlib.org/) -->
<svg height="288pt" version="1.1" viewBox="0 0 432 288" width="432pt" xmlns="http://www.w3.org/2000/svg" xmlns:xlink="http://www.w3.org/1999/xlink">
 <metadata>
  <rdf:RDF xmlns:cc="http://creativecommons.org/ns#" xmlns:dc="http://purl.org/dc/elements/1.1/" xmlns:rdf="http://www.w3.org/1999/02/22-rdf-syntax-ns#">
   <cc:Work>
    <dc:type rdf:resource="http://purl.org/dc/dcmitype/StillImage"/>
    <dc:date>2021-02-27T16:47:04.633851</dc:date>
    <dc:format>image/svg+xml</dc:format>
    <dc:creator>
     <cc:Agent>
      <dc:title>Matplotlib v3.3.2, https://matplotlib.org/</dc:title>
     </cc:Agent>
    </dc:creator>
   </cc:Work>
  </rdf:RDF>
 </metadata>
 <defs>
  <style type="text/css">*{stroke-linecap:butt;stroke-linejoin:round;}</style>
 </defs>
 <g id="figure_1">
  <g id="patch_1">
   <path d="M 0 288 
L 432 288 
L 432 0 
L 0 0 
z
" style="fill:none;"/>
  </g>
  <g id="axes_1">
   <g id="patch_2">
    <path d="M 54 252 
L 388.8 252 
L 388.8 34.56 
L 54 34.56 
z
" style="fill:#ffffff;"/>
   </g>
   <g id="matplotlib.axis_1">
    <g id="xtick_1">
     <g id="line2d_1">
      <path clip-path="url(#pa91881e89e)" d="M 69.218182 252 
L 69.218182 34.56 
" style="fill:none;stroke:#ffffff;stroke-linecap:round;"/>
     </g>
     <g id="text_1">
      <!-- 0.0 -->
      <g style="fill:#262626;" transform="translate(61.573182 269.373594)scale(0.11 -0.11)">
       <defs>
        <path d="M 4.15625 35.296875 
Q 4.15625 48 6.765625 55.734375 
Q 9.375 63.484375 14.515625 67.671875 
Q 19.671875 71.875 27.484375 71.875 
Q 33.25 71.875 37.59375 69.546875 
Q 41.9375 67.234375 44.765625 62.859375 
Q 47.609375 58.5 49.21875 52.21875 
Q 50.828125 45.953125 50.828125 35.296875 
Q 50.828125 22.703125 48.234375 14.96875 
Q 45.65625 7.234375 40.5 3 
Q 35.359375 -1.21875 27.484375 -1.21875 
Q 17.140625 -1.21875 11.234375 6.203125 
Q 4.15625 15.140625 4.15625 35.296875 
z
M 13.1875 35.296875 
Q 13.1875 17.671875 17.3125 11.828125 
Q 21.4375 6 27.484375 6 
Q 33.546875 6 37.671875 11.859375 
Q 41.796875 17.71875 41.796875 35.296875 
Q 41.796875 52.984375 37.671875 58.78125 
Q 33.546875 64.59375 27.390625 64.59375 
Q 21.34375 64.59375 17.71875 59.46875 
Q 13.1875 52.9375 13.1875 35.296875 
z
" id="ArialMT-48"/>
        <path d="M 9.078125 0 
L 9.078125 10.015625 
L 19.09375 10.015625 
L 19.09375 0 
z
" id="ArialMT-46"/>
       </defs>
       <use xlink:href="#ArialMT-48"/>
       <use x="55.615234" xlink:href="#ArialMT-46"/>
       <use x="83.398438" xlink:href="#ArialMT-48"/>
      </g>
     </g>
    </g>
    <g id="xtick_2">
     <g id="line2d_2">
      <path clip-path="url(#pa91881e89e)" d="M 133.728323 252 
L 133.728323 34.56 
" style="fill:none;stroke:#ffffff;stroke-linecap:round;"/>
     </g>
     <g id="text_2">
      <!-- 0.5 -->
      <g style="fill:#262626;" transform="translate(126.083323 269.373594)scale(0.11 -0.11)">
       <defs>
        <path d="M 4.15625 18.75 
L 13.375 19.53125 
Q 14.40625 12.796875 18.140625 9.390625 
Q 21.875 6 27.15625 6 
Q 33.5 6 37.890625 10.78125 
Q 42.28125 15.578125 42.28125 23.484375 
Q 42.28125 31 38.0625 35.34375 
Q 33.84375 39.703125 27 39.703125 
Q 22.75 39.703125 19.328125 37.765625 
Q 15.921875 35.84375 13.96875 32.765625 
L 5.71875 33.84375 
L 12.640625 70.609375 
L 48.25 70.609375 
L 48.25 62.203125 
L 19.671875 62.203125 
L 15.828125 42.96875 
Q 22.265625 47.46875 29.34375 47.46875 
Q 38.71875 47.46875 45.15625 40.96875 
Q 51.609375 34.46875 51.609375 24.265625 
Q 51.609375 14.546875 45.953125 7.46875 
Q 39.0625 -1.21875 27.15625 -1.21875 
Q 17.390625 -1.21875 11.203125 4.25 
Q 5.03125 9.71875 4.15625 18.75 
z
" id="ArialMT-53"/>
       </defs>
       <use xlink:href="#ArialMT-48"/>
       <use x="55.615234" xlink:href="#ArialMT-46"/>
       <use x="83.398438" xlink:href="#ArialMT-53"/>
      </g>
     </g>
    </g>
    <g id="xtick_3">
     <g id="line2d_3">
      <path clip-path="url(#pa91881e89e)" d="M 198.238464 252 
L 198.238464 34.56 
" style="fill:none;stroke:#ffffff;stroke-linecap:round;"/>
     </g>
     <g id="text_3">
      <!-- 1.0 -->
      <g style="fill:#262626;" transform="translate(190.593464 269.373594)scale(0.11 -0.11)">
       <defs>
        <path d="M 37.25 0 
L 28.46875 0 
L 28.46875 56 
Q 25.296875 52.984375 20.140625 49.953125 
Q 14.984375 46.921875 10.890625 45.40625 
L 10.890625 53.90625 
Q 18.265625 57.375 23.78125 62.296875 
Q 29.296875 67.234375 31.59375 71.875 
L 37.25 71.875 
z
" id="ArialMT-49"/>
       </defs>
       <use xlink:href="#ArialMT-49"/>
       <use x="55.615234" xlink:href="#ArialMT-46"/>
       <use x="83.398438" xlink:href="#ArialMT-48"/>
      </g>
     </g>
    </g>
    <g id="xtick_4">
     <g id="line2d_4">
      <path clip-path="url(#pa91881e89e)" d="M 262.748605 252 
L 262.748605 34.56 
" style="fill:none;stroke:#ffffff;stroke-linecap:round;"/>
     </g>
     <g id="text_4">
      <!-- 1.5 -->
      <g style="fill:#262626;" transform="translate(255.103605 269.373594)scale(0.11 -0.11)">
       <use xlink:href="#ArialMT-49"/>
       <use x="55.615234" xlink:href="#ArialMT-46"/>
       <use x="83.398438" xlink:href="#ArialMT-53"/>
      </g>
     </g>
    </g>
    <g id="xtick_5">
     <g id="line2d_5">
      <path clip-path="url(#pa91881e89e)" d="M 327.258746 252 
L 327.258746 34.56 
" style="fill:none;stroke:#ffffff;stroke-linecap:round;"/>
     </g>
     <g id="text_5">
      <!-- 2.0 -->
      <g style="fill:#262626;" transform="translate(319.613746 269.373594)scale(0.11 -0.11)">
       <defs>
        <path d="M 50.34375 8.453125 
L 50.34375 0 
L 3.03125 0 
Q 2.9375 3.171875 4.046875 6.109375 
Q 5.859375 10.9375 9.828125 15.625 
Q 13.8125 20.3125 21.34375 26.46875 
Q 33.015625 36.03125 37.109375 41.625 
Q 41.21875 47.21875 41.21875 52.203125 
Q 41.21875 57.421875 37.46875 61 
Q 33.734375 64.59375 27.734375 64.59375 
Q 21.390625 64.59375 17.578125 60.78125 
Q 13.765625 56.984375 13.71875 50.25 
L 4.6875 51.171875 
Q 5.609375 61.28125 11.65625 66.578125 
Q 17.71875 71.875 27.9375 71.875 
Q 38.234375 71.875 44.234375 66.15625 
Q 50.25 60.453125 50.25 52 
Q 50.25 47.703125 48.484375 43.546875 
Q 46.734375 39.40625 42.65625 34.8125 
Q 38.578125 30.21875 29.109375 22.21875 
Q 21.1875 15.578125 18.9375 13.203125 
Q 16.703125 10.84375 15.234375 8.453125 
z
" id="ArialMT-50"/>
       </defs>
       <use xlink:href="#ArialMT-50"/>
       <use x="55.615234" xlink:href="#ArialMT-46"/>
       <use x="83.398438" xlink:href="#ArialMT-48"/>
      </g>
     </g>
    </g>
   </g>
   <g id="matplotlib.axis_2">
    <g id="ytick_1">
     <g id="line2d_6">
      <path clip-path="url(#pa91881e89e)" d="M 54 242.116364 
L 388.8 242.116364 
" style="fill:none;stroke:#ffffff;stroke-linecap:round;"/>
     </g>
     <g id="text_6">
      <!-- 0 -->
      <g style="fill:#262626;" transform="translate(38.382969 246.053161)scale(0.11 -0.11)">
       <use xlink:href="#ArialMT-48"/>
      </g>
     </g>
    </g>
    <g id="ytick_2">
     <g id="line2d_7">
      <path clip-path="url(#pa91881e89e)" d="M 54 196.086005 
L 388.8 196.086005 
" style="fill:none;stroke:#ffffff;stroke-linecap:round;"/>
     </g>
     <g id="text_7">
      <!-- 1 -->
      <g style="fill:#262626;" transform="translate(38.382969 200.022802)scale(0.11 -0.11)">
       <use xlink:href="#ArialMT-49"/>
      </g>
     </g>
    </g>
    <g id="ytick_3">
     <g id="line2d_8">
      <path clip-path="url(#pa91881e89e)" d="M 54 150.055647 
L 388.8 150.055647 
" style="fill:none;stroke:#ffffff;stroke-linecap:round;"/>
     </g>
     <g id="text_8">
      <!-- 2 -->
      <g style="fill:#262626;" transform="translate(38.382969 153.992444)scale(0.11 -0.11)">
       <use xlink:href="#ArialMT-50"/>
      </g>
     </g>
    </g>
    <g id="ytick_4">
     <g id="line2d_9">
      <path clip-path="url(#pa91881e89e)" d="M 54 104.025289 
L 388.8 104.025289 
" style="fill:none;stroke:#ffffff;stroke-linecap:round;"/>
     </g>
     <g id="text_9">
      <!-- 3 -->
      <g style="fill:#262626;" transform="translate(38.382969 107.962086)scale(0.11 -0.11)">
       <defs>
        <path d="M 4.203125 18.890625 
L 12.984375 20.0625 
Q 14.5 12.59375 18.140625 9.296875 
Q 21.78125 6 27 6 
Q 33.203125 6 37.46875 10.296875 
Q 41.75 14.59375 41.75 20.953125 
Q 41.75 27 37.796875 30.921875 
Q 33.84375 34.859375 27.734375 34.859375 
Q 25.25 34.859375 21.53125 33.890625 
L 22.515625 41.609375 
Q 23.390625 41.5 23.921875 41.5 
Q 29.546875 41.5 34.03125 44.421875 
Q 38.53125 47.359375 38.53125 53.46875 
Q 38.53125 58.296875 35.25 61.46875 
Q 31.984375 64.65625 26.8125 64.65625 
Q 21.6875 64.65625 18.265625 61.421875 
Q 14.84375 58.203125 13.875 51.765625 
L 5.078125 53.328125 
Q 6.6875 62.15625 12.390625 67.015625 
Q 18.109375 71.875 26.609375 71.875 
Q 32.46875 71.875 37.390625 69.359375 
Q 42.328125 66.84375 44.9375 62.5 
Q 47.5625 58.15625 47.5625 53.265625 
Q 47.5625 48.640625 45.0625 44.828125 
Q 42.578125 41.015625 37.703125 38.765625 
Q 44.046875 37.3125 47.5625 32.6875 
Q 51.078125 28.078125 51.078125 21.140625 
Q 51.078125 11.765625 44.234375 5.25 
Q 37.40625 -1.265625 26.953125 -1.265625 
Q 17.53125 -1.265625 11.296875 4.34375 
Q 5.078125 9.96875 4.203125 18.890625 
z
" id="ArialMT-51"/>
       </defs>
       <use xlink:href="#ArialMT-51"/>
      </g>
     </g>
    </g>
    <g id="ytick_5">
     <g id="line2d_10">
      <path clip-path="url(#pa91881e89e)" d="M 54 57.994931 
L 388.8 57.994931 
" style="fill:none;stroke:#ffffff;stroke-linecap:round;"/>
     </g>
     <g id="text_10">
      <!-- 4 -->
      <g style="fill:#262626;" transform="translate(38.382969 61.931728)scale(0.11 -0.11)">
       <defs>
        <path d="M 32.328125 0 
L 32.328125 17.140625 
L 1.265625 17.140625 
L 1.265625 25.203125 
L 33.9375 71.578125 
L 41.109375 71.578125 
L 41.109375 25.203125 
L 50.78125 25.203125 
L 50.78125 17.140625 
L 41.109375 17.140625 
L 41.109375 0 
z
M 32.328125 25.203125 
L 32.328125 57.46875 
L 9.90625 25.203125 
z
" id="ArialMT-52"/>
       </defs>
       <use xlink:href="#ArialMT-52"/>
      </g>
     </g>
    </g>
   </g>
   <g id="PathCollection_1">
    <defs>
     <path d="M 0 2.236068 
C 0.593012 2.236068 1.161816 2.000462 1.581139 1.581139 
C 2.000462 1.161816 2.236068 0.593012 2.236068 0 
C 2.236068 -0.593012 2.000462 -1.161816 1.581139 -1.581139 
C 1.161816 -2.000462 0.593012 -2.236068 0 -2.236068 
C -0.593012 -2.236068 -1.161816 -2.000462 -1.581139 -1.581139 
C -2.000462 -1.161816 -2.236068 -0.593012 -2.236068 0 
C -2.236068 0.593012 -2.000462 1.161816 -1.581139 1.581139 
C -1.161816 2.000462 -0.593012 2.236068 0 2.236068 
z
" id="m414764f94d" style="stroke:#ff6347;stroke-opacity:0.5;"/>
    </defs>
    <g clip-path="url(#pa91881e89e)">
     <use style="fill:#ff6347;fill-opacity:0.5;stroke:#ff6347;stroke-opacity:0.5;" x="85.909229" xlink:href="#m414764f94d" y="134.168849"/>
     <use style="fill:#ff6347;fill-opacity:0.5;stroke:#ff6347;stroke-opacity:0.5;" x="69.218182" xlink:href="#m414764f94d" y="44.443636"/>
     <use style="fill:#ff6347;fill-opacity:0.5;stroke:#ff6347;stroke-opacity:0.5;" x="110.949654" xlink:href="#m414764f94d" y="141.025196"/>
     <use style="fill:#ff6347;fill-opacity:0.5;stroke:#ff6347;stroke-opacity:0.5;" x="69.218182" xlink:href="#m414764f94d" y="79.373377"/>
     <use style="fill:#ff6347;fill-opacity:0.5;stroke:#ff6347;stroke-opacity:0.5;" x="69.218182" xlink:href="#m414764f94d" y="131.009441"/>
     <use style="fill:#ff6347;fill-opacity:0.5;stroke:#ff6347;stroke-opacity:0.5;" x="103.413762" xlink:href="#m414764f94d" y="138.943665"/>
     <use style="fill:#ff6347;fill-opacity:0.5;stroke:#ff6347;stroke-opacity:0.5;" x="145.161415" xlink:href="#m414764f94d" y="170.688905"/>
     <use style="fill:#ff6347;fill-opacity:0.5;stroke:#ff6347;stroke-opacity:0.5;" x="115.648094" xlink:href="#m414764f94d" y="162.080341"/>
     <use style="fill:#ff6347;fill-opacity:0.5;stroke:#ff6347;stroke-opacity:0.5;" x="76.379059" xlink:href="#m414764f94d" y="113.170691"/>
     <use style="fill:#ff6347;fill-opacity:0.5;stroke:#ff6347;stroke-opacity:0.5;" x="112.687756" xlink:href="#m414764f94d" y="98.399087"/>
     <use style="fill:#ff6347;fill-opacity:0.5;stroke:#ff6347;stroke-opacity:0.5;" x="99.824808" xlink:href="#m414764f94d" y="160.188547"/>
     <use style="fill:#ff6347;fill-opacity:0.5;stroke:#ff6347;stroke-opacity:0.5;" x="73.687554" xlink:href="#m414764f94d" y="130.016428"/>
     <use style="fill:#ff6347;fill-opacity:0.5;stroke:#ff6347;stroke-opacity:0.5;" x="77.951418" xlink:href="#m414764f94d" y="115.363724"/>
     <use style="fill:#ff6347;fill-opacity:0.5;stroke:#ff6347;stroke-opacity:0.5;" x="69.218182" xlink:href="#m414764f94d" y="45.21339"/>
    </g>
   </g>
   <g id="PathCollection_2">
    <defs>
     <path d="M -5 5 
L 5 -5 
M -5 -5 
L 5 5 
" id="m86ed16edfd" style="stroke:#ff6347;stroke-width:1.5;"/>
    </defs>
    <g clip-path="url(#pa91881e89e)">
     <use style="fill:#ff6347;stroke:#ff6347;stroke-width:1.5;" x="91.320391" xlink:href="#m86ed16edfd" y="118.863234"/>
    </g>
   </g>
   <g id="PathCollection_3">
    <defs>
     <path d="M 0 2.236068 
C 0.593012 2.236068 1.161816 2.000462 1.581139 1.581139 
C 2.000462 1.161816 2.236068 0.593012 2.236068 0 
C 2.236068 -0.593012 2.000462 -1.161816 1.581139 -1.581139 
C 1.161816 -2.000462 0.593012 -2.236068 0 -2.236068 
C -0.593012 -2.236068 -1.161816 -2.000462 -1.581139 -1.581139 
C -2.000462 -1.161816 -2.236068 -0.593012 -2.236068 0 
C -2.236068 0.593012 -2.000462 1.161816 -1.581139 1.581139 
C -1.161816 2.000462 -0.593012 2.236068 0 2.236068 
z
" id="m47b7fbba3b" style="stroke:#ffa500;stroke-opacity:0.5;"/>
    </defs>
    <g clip-path="url(#pa91881e89e)">
     <use style="fill:#ffa500;fill-opacity:0.5;stroke:#ffa500;stroke-opacity:0.5;" x="265.945339" xlink:href="#m47b7fbba3b" y="224.907231"/>
     <use style="fill:#ffa500;fill-opacity:0.5;stroke:#ffa500;stroke-opacity:0.5;" x="157.00869" xlink:href="#m47b7fbba3b" y="235.165472"/>
     <use style="fill:#ffa500;fill-opacity:0.5;stroke:#ffa500;stroke-opacity:0.5;" x="189.905984" xlink:href="#m47b7fbba3b" y="242.116364"/>
     <use style="fill:#ffa500;fill-opacity:0.5;stroke:#ffa500;stroke-opacity:0.5;" x="223.079045" xlink:href="#m47b7fbba3b" y="241.112175"/>
     <use style="fill:#ffa500;fill-opacity:0.5;stroke:#ffa500;stroke-opacity:0.5;" x="193.443487" xlink:href="#m47b7fbba3b" y="235.076489"/>
     <use style="fill:#ffa500;fill-opacity:0.5;stroke:#ffa500;stroke-opacity:0.5;" x="169.431844" xlink:href="#m47b7fbba3b" y="240.18175"/>
     <use style="fill:#ffa500;fill-opacity:0.5;stroke:#ffa500;stroke-opacity:0.5;" x="131.861025" xlink:href="#m47b7fbba3b" y="198.874779"/>
     <use style="fill:#ffa500;fill-opacity:0.5;stroke:#ffa500;stroke-opacity:0.5;" x="205.488888" xlink:href="#m47b7fbba3b" y="242.116364"/>
     <use style="fill:#ffa500;fill-opacity:0.5;stroke:#ffa500;stroke-opacity:0.5;" x="108.653594" xlink:href="#m47b7fbba3b" y="238.479201"/>
     <use style="fill:#ffa500;fill-opacity:0.5;stroke:#ffa500;stroke-opacity:0.5;" x="184.061211" xlink:href="#m47b7fbba3b" y="242.116364"/>
     <use style="fill:#ffa500;fill-opacity:0.5;stroke:#ffa500;stroke-opacity:0.5;" x="165.25656" xlink:href="#m47b7fbba3b" y="239.137101"/>
     <use style="fill:#ffa500;fill-opacity:0.5;stroke:#ffa500;stroke-opacity:0.5;" x="186.26987" xlink:href="#m47b7fbba3b" y="221.482427"/>
     <use style="fill:#ffa500;fill-opacity:0.5;stroke:#ffa500;stroke-opacity:0.5;" x="180.799946" xlink:href="#m47b7fbba3b" y="242.116364"/>
     <use style="fill:#ffa500;fill-opacity:0.5;stroke:#ffa500;stroke-opacity:0.5;" x="215.395438" xlink:href="#m47b7fbba3b" y="231.003848"/>
     <use style="fill:#ffa500;fill-opacity:0.5;stroke:#ffa500;stroke-opacity:0.5;" x="220.113669" xlink:href="#m47b7fbba3b" y="242.116364"/>
     <use style="fill:#ffa500;fill-opacity:0.5;stroke:#ffa500;stroke-opacity:0.5;" x="176.611191" xlink:href="#m47b7fbba3b" y="208.856063"/>
     <use style="fill:#ffa500;fill-opacity:0.5;stroke:#ffa500;stroke-opacity:0.5;" x="148.92502" xlink:href="#m47b7fbba3b" y="241.9715"/>
     <use style="fill:#ffa500;fill-opacity:0.5;stroke:#ffa500;stroke-opacity:0.5;" x="164.751482" xlink:href="#m47b7fbba3b" y="242.116364"/>
     <use style="fill:#ffa500;fill-opacity:0.5;stroke:#ffa500;stroke-opacity:0.5;" x="215.537781" xlink:href="#m47b7fbba3b" y="242.116364"/>
     <use style="fill:#ffa500;fill-opacity:0.5;stroke:#ffa500;stroke-opacity:0.5;" x="256.983497" xlink:href="#m47b7fbba3b" y="242.116364"/>
     <use style="fill:#ffa500;fill-opacity:0.5;stroke:#ffa500;stroke-opacity:0.5;" x="189.022177" xlink:href="#m47b7fbba3b" y="239.720015"/>
     <use style="fill:#ffa500;fill-opacity:0.5;stroke:#ffa500;stroke-opacity:0.5;" x="171.154283" xlink:href="#m47b7fbba3b" y="238.780092"/>
     <use style="fill:#ffa500;fill-opacity:0.5;stroke:#ffa500;stroke-opacity:0.5;" x="191.096475" xlink:href="#m47b7fbba3b" y="240.544101"/>
     <use style="fill:#ffa500;fill-opacity:0.5;stroke:#ffa500;stroke-opacity:0.5;" x="185.482963" xlink:href="#m47b7fbba3b" y="227.834497"/>
     <use style="fill:#ffa500;fill-opacity:0.5;stroke:#ffa500;stroke-opacity:0.5;" x="173.09054" xlink:href="#m47b7fbba3b" y="234.466778"/>
     <use style="fill:#ffa500;fill-opacity:0.5;stroke:#ffa500;stroke-opacity:0.5;" x="129.371307" xlink:href="#m47b7fbba3b" y="223.341602"/>
     <use style="fill:#ffa500;fill-opacity:0.5;stroke:#ffa500;stroke-opacity:0.5;" x="153.250914" xlink:href="#m47b7fbba3b" y="219.2771"/>
     <use style="fill:#ffa500;fill-opacity:0.5;stroke:#ffa500;stroke-opacity:0.5;" x="169.680945" xlink:href="#m47b7fbba3b" y="240.914279"/>
     <use style="fill:#ffa500;fill-opacity:0.5;stroke:#ffa500;stroke-opacity:0.5;" x="152.293604" xlink:href="#m47b7fbba3b" y="238.875267"/>
     <use style="fill:#ffa500;fill-opacity:0.5;stroke:#ffa500;stroke-opacity:0.5;" x="149.686295" xlink:href="#m47b7fbba3b" y="232.358321"/>
     <use style="fill:#ffa500;fill-opacity:0.5;stroke:#ffa500;stroke-opacity:0.5;" x="147.354558" xlink:href="#m47b7fbba3b" y="234.910392"/>
     <use style="fill:#ffa500;fill-opacity:0.5;stroke:#ffa500;stroke-opacity:0.5;" x="138.486825" xlink:href="#m47b7fbba3b" y="207.681342"/>
     <use style="fill:#ffa500;fill-opacity:0.5;stroke:#ffa500;stroke-opacity:0.5;" x="175.078661" xlink:href="#m47b7fbba3b" y="242.116364"/>
     <use style="fill:#ffa500;fill-opacity:0.5;stroke:#ffa500;stroke-opacity:0.5;" x="123.553545" xlink:href="#m47b7fbba3b" y="239.957235"/>
     <use style="fill:#ffa500;fill-opacity:0.5;stroke:#ffa500;stroke-opacity:0.5;" x="188.912028" xlink:href="#m47b7fbba3b" y="237.953018"/>
     <use style="fill:#ffa500;fill-opacity:0.5;stroke:#ffa500;stroke-opacity:0.5;" x="152.645411" xlink:href="#m47b7fbba3b" y="219.60056"/>
     <use style="fill:#ffa500;fill-opacity:0.5;stroke:#ffa500;stroke-opacity:0.5;" x="178.310505" xlink:href="#m47b7fbba3b" y="242.116364"/>
     <use style="fill:#ffa500;fill-opacity:0.5;stroke:#ffa500;stroke-opacity:0.5;" x="169.601327" xlink:href="#m47b7fbba3b" y="238.231106"/>
     <use style="fill:#ffa500;fill-opacity:0.5;stroke:#ffa500;stroke-opacity:0.5;" x="190.502479" xlink:href="#m47b7fbba3b" y="237.95854"/>
     <use style="fill:#ffa500;fill-opacity:0.5;stroke:#ffa500;stroke-opacity:0.5;" x="176.093629" xlink:href="#m47b7fbba3b" y="239.266929"/>
     <use style="fill:#ffa500;fill-opacity:0.5;stroke:#ffa500;stroke-opacity:0.5;" x="194.467425" xlink:href="#m47b7fbba3b" y="216.407265"/>
     <use style="fill:#ffa500;fill-opacity:0.5;stroke:#ffa500;stroke-opacity:0.5;" x="205.375747" xlink:href="#m47b7fbba3b" y="242.116364"/>
     <use style="fill:#ffa500;fill-opacity:0.5;stroke:#ffa500;stroke-opacity:0.5;" x="125.742677" xlink:href="#m47b7fbba3b" y="239.168393"/>
     <use style="fill:#ffa500;fill-opacity:0.5;stroke:#ffa500;stroke-opacity:0.5;" x="197.176163" xlink:href="#m47b7fbba3b" y="228.77044"/>
     <use style="fill:#ffa500;fill-opacity:0.5;stroke:#ffa500;stroke-opacity:0.5;" x="181.867054" xlink:href="#m47b7fbba3b" y="221.140589"/>
     <use style="fill:#ffa500;fill-opacity:0.5;stroke:#ffa500;stroke-opacity:0.5;" x="168.635327" xlink:href="#m47b7fbba3b" y="224.17157"/>
     <use style="fill:#ffa500;fill-opacity:0.5;stroke:#ffa500;stroke-opacity:0.5;" x="198.647911" xlink:href="#m47b7fbba3b" y="240.770259"/>
     <use style="fill:#ffa500;fill-opacity:0.5;stroke:#ffa500;stroke-opacity:0.5;" x="142.725221" xlink:href="#m47b7fbba3b" y="239.467288"/>
     <use style="fill:#ffa500;fill-opacity:0.5;stroke:#ffa500;stroke-opacity:0.5;" x="69.218182" xlink:href="#m47b7fbba3b" y="242.116364"/>
     <use style="fill:#ffa500;fill-opacity:0.5;stroke:#ffa500;stroke-opacity:0.5;" x="70.919877" xlink:href="#m47b7fbba3b" y="237.500186"/>
     <use style="fill:#ffa500;fill-opacity:0.5;stroke:#ffa500;stroke-opacity:0.5;" x="122.544881" xlink:href="#m47b7fbba3b" y="240.377253"/>
     <use style="fill:#ffa500;fill-opacity:0.5;stroke:#ffa500;stroke-opacity:0.5;" x="143.801931" xlink:href="#m47b7fbba3b" y="239.752567"/>
     <use style="fill:#ffa500;fill-opacity:0.5;stroke:#ffa500;stroke-opacity:0.5;" x="165.285698" xlink:href="#m47b7fbba3b" y="241.034425"/>
     <use style="fill:#ffa500;fill-opacity:0.5;stroke:#ffa500;stroke-opacity:0.5;" x="217.657035" xlink:href="#m47b7fbba3b" y="237.558626"/>
     <use style="fill:#ffa500;fill-opacity:0.5;stroke:#ffa500;stroke-opacity:0.5;" x="215.292599" xlink:href="#m47b7fbba3b" y="239.327048"/>
     <use style="fill:#ffa500;fill-opacity:0.5;stroke:#ffa500;stroke-opacity:0.5;" x="193.124373" xlink:href="#m47b7fbba3b" y="242.082153"/>
     <use style="fill:#ffa500;fill-opacity:0.5;stroke:#ffa500;stroke-opacity:0.5;" x="136.94392" xlink:href="#m47b7fbba3b" y="230.115025"/>
     <use style="fill:#ffa500;fill-opacity:0.5;stroke:#ffa500;stroke-opacity:0.5;" x="202.046554" xlink:href="#m47b7fbba3b" y="237.857133"/>
     <use style="fill:#ffa500;fill-opacity:0.5;stroke:#ffa500;stroke-opacity:0.5;" x="177.204679" xlink:href="#m47b7fbba3b" y="234.09885"/>
     <use style="fill:#ffa500;fill-opacity:0.5;stroke:#ffa500;stroke-opacity:0.5;" x="165.651184" xlink:href="#m47b7fbba3b" y="224.228702"/>
     <use style="fill:#ffa500;fill-opacity:0.5;stroke:#ffa500;stroke-opacity:0.5;" x="210.235805" xlink:href="#m47b7fbba3b" y="209.476639"/>
     <use style="fill:#ffa500;fill-opacity:0.5;stroke:#ffa500;stroke-opacity:0.5;" x="199.470902" xlink:href="#m47b7fbba3b" y="237.454934"/>
     <use style="fill:#ffa500;fill-opacity:0.5;stroke:#ffa500;stroke-opacity:0.5;" x="149.519994" xlink:href="#m47b7fbba3b" y="229.759343"/>
     <use style="fill:#ffa500;fill-opacity:0.5;stroke:#ffa500;stroke-opacity:0.5;" x="164.487616" xlink:href="#m47b7fbba3b" y="236.227896"/>
     <use style="fill:#ffa500;fill-opacity:0.5;stroke:#ffa500;stroke-opacity:0.5;" x="294.671434" xlink:href="#m47b7fbba3b" y="242.116364"/>
     <use style="fill:#ffa500;fill-opacity:0.5;stroke:#ffa500;stroke-opacity:0.5;" x="148.886382" xlink:href="#m47b7fbba3b" y="240.379387"/>
     <use style="fill:#ffa500;fill-opacity:0.5;stroke:#ffa500;stroke-opacity:0.5;" x="211.121221" xlink:href="#m47b7fbba3b" y="240.633625"/>
     <use style="fill:#ffa500;fill-opacity:0.5;stroke:#ffa500;stroke-opacity:0.5;" x="224.991262" xlink:href="#m47b7fbba3b" y="227.729721"/>
     <use style="fill:#ffa500;fill-opacity:0.5;stroke:#ffa500;stroke-opacity:0.5;" x="111.458" xlink:href="#m47b7fbba3b" y="220.811619"/>
     <use style="fill:#ffa500;fill-opacity:0.5;stroke:#ffa500;stroke-opacity:0.5;" x="171.826935" xlink:href="#m47b7fbba3b" y="217.84365"/>
     <use style="fill:#ffa500;fill-opacity:0.5;stroke:#ffa500;stroke-opacity:0.5;" x="173.996482" xlink:href="#m47b7fbba3b" y="241.134555"/>
     <use style="fill:#ffa500;fill-opacity:0.5;stroke:#ffa500;stroke-opacity:0.5;" x="204.543068" xlink:href="#m47b7fbba3b" y="242.116364"/>
     <use style="fill:#ffa500;fill-opacity:0.5;stroke:#ffa500;stroke-opacity:0.5;" x="170.74498" xlink:href="#m47b7fbba3b" y="219.444492"/>
     <use style="fill:#ffa500;fill-opacity:0.5;stroke:#ffa500;stroke-opacity:0.5;" x="269.57758" xlink:href="#m47b7fbba3b" y="240.428861"/>
     <use style="fill:#ffa500;fill-opacity:0.5;stroke:#ffa500;stroke-opacity:0.5;" x="229.193883" xlink:href="#m47b7fbba3b" y="242.116364"/>
     <use style="fill:#ffa500;fill-opacity:0.5;stroke:#ffa500;stroke-opacity:0.5;" x="113.771071" xlink:href="#m47b7fbba3b" y="232.15889"/>
     <use style="fill:#ffa500;fill-opacity:0.5;stroke:#ffa500;stroke-opacity:0.5;" x="230.506609" xlink:href="#m47b7fbba3b" y="235.042795"/>
     <use style="fill:#ffa500;fill-opacity:0.5;stroke:#ffa500;stroke-opacity:0.5;" x="190.259805" xlink:href="#m47b7fbba3b" y="225.860036"/>
     <use style="fill:#ffa500;fill-opacity:0.5;stroke:#ffa500;stroke-opacity:0.5;" x="252.842418" xlink:href="#m47b7fbba3b" y="242.116364"/>
     <use style="fill:#ffa500;fill-opacity:0.5;stroke:#ffa500;stroke-opacity:0.5;" x="186.961052" xlink:href="#m47b7fbba3b" y="228.95083"/>
     <use style="fill:#ffa500;fill-opacity:0.5;stroke:#ffa500;stroke-opacity:0.5;" x="127.810965" xlink:href="#m47b7fbba3b" y="242.116364"/>
     <use style="fill:#ffa500;fill-opacity:0.5;stroke:#ffa500;stroke-opacity:0.5;" x="120.562523" xlink:href="#m47b7fbba3b" y="235.383143"/>
     <use style="fill:#ffa500;fill-opacity:0.5;stroke:#ffa500;stroke-opacity:0.5;" x="200.377055" xlink:href="#m47b7fbba3b" y="223.091434"/>
     <use style="fill:#ffa500;fill-opacity:0.5;stroke:#ffa500;stroke-opacity:0.5;" x="158.491859" xlink:href="#m47b7fbba3b" y="242.116364"/>
     <use style="fill:#ffa500;fill-opacity:0.5;stroke:#ffa500;stroke-opacity:0.5;" x="69.218182" xlink:href="#m47b7fbba3b" y="227.176475"/>
     <use style="fill:#ffa500;fill-opacity:0.5;stroke:#ffa500;stroke-opacity:0.5;" x="164.793599" xlink:href="#m47b7fbba3b" y="184.445044"/>
     <use style="fill:#ffa500;fill-opacity:0.5;stroke:#ffa500;stroke-opacity:0.5;" x="159.386602" xlink:href="#m47b7fbba3b" y="238.055481"/>
     <use style="fill:#ffa500;fill-opacity:0.5;stroke:#ffa500;stroke-opacity:0.5;" x="155.6545" xlink:href="#m47b7fbba3b" y="229.71434"/>
     <use style="fill:#ffa500;fill-opacity:0.5;stroke:#ffa500;stroke-opacity:0.5;" x="181.164367" xlink:href="#m47b7fbba3b" y="242.116364"/>
     <use style="fill:#ffa500;fill-opacity:0.5;stroke:#ffa500;stroke-opacity:0.5;" x="185.980613" xlink:href="#m47b7fbba3b" y="240.299755"/>
     <use style="fill:#ffa500;fill-opacity:0.5;stroke:#ffa500;stroke-opacity:0.5;" x="154.198684" xlink:href="#m47b7fbba3b" y="242.116364"/>
     <use style="fill:#ffa500;fill-opacity:0.5;stroke:#ffa500;stroke-opacity:0.5;" x="137.345759" xlink:href="#m47b7fbba3b" y="195.461857"/>
     <use style="fill:#ffa500;fill-opacity:0.5;stroke:#ffa500;stroke-opacity:0.5;" x="147.713808" xlink:href="#m47b7fbba3b" y="232.304858"/>
     <use style="fill:#ffa500;fill-opacity:0.5;stroke:#ffa500;stroke-opacity:0.5;" x="134.348159" xlink:href="#m47b7fbba3b" y="216.866949"/>
     <use style="fill:#ffa500;fill-opacity:0.5;stroke:#ffa500;stroke-opacity:0.5;" x="176.738587" xlink:href="#m47b7fbba3b" y="241.006762"/>
     <use style="fill:#ffa500;fill-opacity:0.5;stroke:#ffa500;stroke-opacity:0.5;" x="174.187246" xlink:href="#m47b7fbba3b" y="238.753469"/>
     <use style="fill:#ffa500;fill-opacity:0.5;stroke:#ffa500;stroke-opacity:0.5;" x="183.080357" xlink:href="#m47b7fbba3b" y="241.179273"/>
     <use style="fill:#ffa500;fill-opacity:0.5;stroke:#ffa500;stroke-opacity:0.5;" x="217.362595" xlink:href="#m47b7fbba3b" y="238.765144"/>
     <use style="fill:#ffa500;fill-opacity:0.5;stroke:#ffa500;stroke-opacity:0.5;" x="280.233194" xlink:href="#m47b7fbba3b" y="240.961255"/>
     <use style="fill:#ffa500;fill-opacity:0.5;stroke:#ffa500;stroke-opacity:0.5;" x="182.19155" xlink:href="#m47b7fbba3b" y="233.726945"/>
     <use style="fill:#ffa500;fill-opacity:0.5;stroke:#ffa500;stroke-opacity:0.5;" x="69.218182" xlink:href="#m47b7fbba3b" y="242.116364"/>
     <use style="fill:#ffa500;fill-opacity:0.5;stroke:#ffa500;stroke-opacity:0.5;" x="225.715428" xlink:href="#m47b7fbba3b" y="239.159701"/>
     <use style="fill:#ffa500;fill-opacity:0.5;stroke:#ffa500;stroke-opacity:0.5;" x="203.76492" xlink:href="#m47b7fbba3b" y="242.116364"/>
     <use style="fill:#ffa500;fill-opacity:0.5;stroke:#ffa500;stroke-opacity:0.5;" x="150.771506" xlink:href="#m47b7fbba3b" y="231.803263"/>
     <use style="fill:#ffa500;fill-opacity:0.5;stroke:#ffa500;stroke-opacity:0.5;" x="148.617697" xlink:href="#m47b7fbba3b" y="192.362312"/>
     <use style="fill:#ffa500;fill-opacity:0.5;stroke:#ffa500;stroke-opacity:0.5;" x="187.758019" xlink:href="#m47b7fbba3b" y="231.427732"/>
     <use style="fill:#ffa500;fill-opacity:0.5;stroke:#ffa500;stroke-opacity:0.5;" x="171.253151" xlink:href="#m47b7fbba3b" y="236.695032"/>
     <use style="fill:#ffa500;fill-opacity:0.5;stroke:#ffa500;stroke-opacity:0.5;" x="106.677817" xlink:href="#m47b7fbba3b" y="186.917334"/>
     <use style="fill:#ffa500;fill-opacity:0.5;stroke:#ffa500;stroke-opacity:0.5;" x="150.582061" xlink:href="#m47b7fbba3b" y="241.035826"/>
     <use style="fill:#ffa500;fill-opacity:0.5;stroke:#ffa500;stroke-opacity:0.5;" x="171.42296" xlink:href="#m47b7fbba3b" y="242.116364"/>
     <use style="fill:#ffa500;fill-opacity:0.5;stroke:#ffa500;stroke-opacity:0.5;" x="149.483151" xlink:href="#m47b7fbba3b" y="241.377758"/>
     <use style="fill:#ffa500;fill-opacity:0.5;stroke:#ffa500;stroke-opacity:0.5;" x="175.720558" xlink:href="#m47b7fbba3b" y="242.116364"/>
     <use style="fill:#ffa500;fill-opacity:0.5;stroke:#ffa500;stroke-opacity:0.5;" x="159.613971" xlink:href="#m47b7fbba3b" y="237.822974"/>
     <use style="fill:#ffa500;fill-opacity:0.5;stroke:#ffa500;stroke-opacity:0.5;" x="118.060185" xlink:href="#m47b7fbba3b" y="205.871593"/>
     <use style="fill:#ffa500;fill-opacity:0.5;stroke:#ffa500;stroke-opacity:0.5;" x="127.141377" xlink:href="#m47b7fbba3b" y="225.538976"/>
     <use style="fill:#ffa500;fill-opacity:0.5;stroke:#ffa500;stroke-opacity:0.5;" x="169.899346" xlink:href="#m47b7fbba3b" y="230.801805"/>
     <use style="fill:#ffa500;fill-opacity:0.5;stroke:#ffa500;stroke-opacity:0.5;" x="161.914448" xlink:href="#m47b7fbba3b" y="241.551079"/>
     <use style="fill:#ffa500;fill-opacity:0.5;stroke:#ffa500;stroke-opacity:0.5;" x="184.387148" xlink:href="#m47b7fbba3b" y="234.323205"/>
     <use style="fill:#ffa500;fill-opacity:0.5;stroke:#ffa500;stroke-opacity:0.5;" x="194.680801" xlink:href="#m47b7fbba3b" y="221.687468"/>
     <use style="fill:#ffa500;fill-opacity:0.5;stroke:#ffa500;stroke-opacity:0.5;" x="161.326299" xlink:href="#m47b7fbba3b" y="242.116364"/>
     <use style="fill:#ffa500;fill-opacity:0.5;stroke:#ffa500;stroke-opacity:0.5;" x="193.301596" xlink:href="#m47b7fbba3b" y="240.372494"/>
     <use style="fill:#ffa500;fill-opacity:0.5;stroke:#ffa500;stroke-opacity:0.5;" x="194.663472" xlink:href="#m47b7fbba3b" y="232.29999"/>
     <use style="fill:#ffa500;fill-opacity:0.5;stroke:#ffa500;stroke-opacity:0.5;" x="183.721973" xlink:href="#m47b7fbba3b" y="237.568438"/>
     <use style="fill:#ffa500;fill-opacity:0.5;stroke:#ffa500;stroke-opacity:0.5;" x="209.30758" xlink:href="#m47b7fbba3b" y="239.145694"/>
     <use style="fill:#ffa500;fill-opacity:0.5;stroke:#ffa500;stroke-opacity:0.5;" x="71.305168" xlink:href="#m47b7fbba3b" y="232.417782"/>
     <use style="fill:#ffa500;fill-opacity:0.5;stroke:#ffa500;stroke-opacity:0.5;" x="198.857957" xlink:href="#m47b7fbba3b" y="235.584787"/>
     <use style="fill:#ffa500;fill-opacity:0.5;stroke:#ffa500;stroke-opacity:0.5;" x="137.073468" xlink:href="#m47b7fbba3b" y="182.939347"/>
     <use style="fill:#ffa500;fill-opacity:0.5;stroke:#ffa500;stroke-opacity:0.5;" x="214.733363" xlink:href="#m47b7fbba3b" y="233.232452"/>
     <use style="fill:#ffa500;fill-opacity:0.5;stroke:#ffa500;stroke-opacity:0.5;" x="197.850508" xlink:href="#m47b7fbba3b" y="241.697835"/>
     <use style="fill:#ffa500;fill-opacity:0.5;stroke:#ffa500;stroke-opacity:0.5;" x="179.494789" xlink:href="#m47b7fbba3b" y="232.64172"/>
     <use style="fill:#ffa500;fill-opacity:0.5;stroke:#ffa500;stroke-opacity:0.5;" x="140.201703" xlink:href="#m47b7fbba3b" y="216.790678"/>
     <use style="fill:#ffa500;fill-opacity:0.5;stroke:#ffa500;stroke-opacity:0.5;" x="196.981273" xlink:href="#m47b7fbba3b" y="242.116364"/>
     <use style="fill:#ffa500;fill-opacity:0.5;stroke:#ffa500;stroke-opacity:0.5;" x="153.805315" xlink:href="#m47b7fbba3b" y="234.438581"/>
     <use style="fill:#ffa500;fill-opacity:0.5;stroke:#ffa500;stroke-opacity:0.5;" x="152.492194" xlink:href="#m47b7fbba3b" y="237.842531"/>
     <use style="fill:#ffa500;fill-opacity:0.5;stroke:#ffa500;stroke-opacity:0.5;" x="171.88934" xlink:href="#m47b7fbba3b" y="230.590895"/>
     <use style="fill:#ffa500;fill-opacity:0.5;stroke:#ffa500;stroke-opacity:0.5;" x="281.624467" xlink:href="#m47b7fbba3b" y="242.116364"/>
     <use style="fill:#ffa500;fill-opacity:0.5;stroke:#ffa500;stroke-opacity:0.5;" x="185.484139" xlink:href="#m47b7fbba3b" y="240.735201"/>
     <use style="fill:#ffa500;fill-opacity:0.5;stroke:#ffa500;stroke-opacity:0.5;" x="161.876912" xlink:href="#m47b7fbba3b" y="226.67407"/>
     <use style="fill:#ffa500;fill-opacity:0.5;stroke:#ffa500;stroke-opacity:0.5;" x="135.458073" xlink:href="#m47b7fbba3b" y="241.914938"/>
     <use style="fill:#ffa500;fill-opacity:0.5;stroke:#ffa500;stroke-opacity:0.5;" x="129.049014" xlink:href="#m47b7fbba3b" y="233.497219"/>
     <use style="fill:#ffa500;fill-opacity:0.5;stroke:#ffa500;stroke-opacity:0.5;" x="147.447445" xlink:href="#m47b7fbba3b" y="215.077876"/>
     <use style="fill:#ffa500;fill-opacity:0.5;stroke:#ffa500;stroke-opacity:0.5;" x="111.439834" xlink:href="#m47b7fbba3b" y="208.101334"/>
     <use style="fill:#ffa500;fill-opacity:0.5;stroke:#ffa500;stroke-opacity:0.5;" x="176.961517" xlink:href="#m47b7fbba3b" y="227.522545"/>
     <use style="fill:#ffa500;fill-opacity:0.5;stroke:#ffa500;stroke-opacity:0.5;" x="216.24147" xlink:href="#m47b7fbba3b" y="242.116364"/>
     <use style="fill:#ffa500;fill-opacity:0.5;stroke:#ffa500;stroke-opacity:0.5;" x="69.218182" xlink:href="#m47b7fbba3b" y="242.116364"/>
     <use style="fill:#ffa500;fill-opacity:0.5;stroke:#ffa500;stroke-opacity:0.5;" x="169.513613" xlink:href="#m47b7fbba3b" y="239.47706"/>
     <use style="fill:#ffa500;fill-opacity:0.5;stroke:#ffa500;stroke-opacity:0.5;" x="237.698242" xlink:href="#m47b7fbba3b" y="242.116364"/>
     <use style="fill:#ffa500;fill-opacity:0.5;stroke:#ffa500;stroke-opacity:0.5;" x="73.899294" xlink:href="#m47b7fbba3b" y="237.764173"/>
     <use style="fill:#ffa500;fill-opacity:0.5;stroke:#ffa500;stroke-opacity:0.5;" x="207.244452" xlink:href="#m47b7fbba3b" y="239.755612"/>
     <use style="fill:#ffa500;fill-opacity:0.5;stroke:#ffa500;stroke-opacity:0.5;" x="186.55828" xlink:href="#m47b7fbba3b" y="239.295759"/>
     <use style="fill:#ffa500;fill-opacity:0.5;stroke:#ffa500;stroke-opacity:0.5;" x="156.277977" xlink:href="#m47b7fbba3b" y="230.888357"/>
     <use style="fill:#ffa500;fill-opacity:0.5;stroke:#ffa500;stroke-opacity:0.5;" x="148.334213" xlink:href="#m47b7fbba3b" y="215.579672"/>
     <use style="fill:#ffa500;fill-opacity:0.5;stroke:#ffa500;stroke-opacity:0.5;" x="264.732906" xlink:href="#m47b7fbba3b" y="242.116364"/>
     <use style="fill:#ffa500;fill-opacity:0.5;stroke:#ffa500;stroke-opacity:0.5;" x="198.800501" xlink:href="#m47b7fbba3b" y="237.611538"/>
     <use style="fill:#ffa500;fill-opacity:0.5;stroke:#ffa500;stroke-opacity:0.5;" x="167.506816" xlink:href="#m47b7fbba3b" y="229.94032"/>
     <use style="fill:#ffa500;fill-opacity:0.5;stroke:#ffa500;stroke-opacity:0.5;" x="91.823797" xlink:href="#m47b7fbba3b" y="190.110101"/>
     <use style="fill:#ffa500;fill-opacity:0.5;stroke:#ffa500;stroke-opacity:0.5;" x="373.581818" xlink:href="#m47b7fbba3b" y="236.306147"/>
    </g>
   </g>
   <g id="PathCollection_4">
    <defs>
     <path d="M -5 5 
L 5 -5 
M -5 -5 
L 5 5 
" id="m273f9dc0ac" style="stroke:#ffa500;stroke-width:1.5;"/>
    </defs>
    <g clip-path="url(#pa91881e89e)">
     <use style="fill:#ffa500;stroke:#ffa500;stroke-width:1.5;" x="173.585279" xlink:href="#m273f9dc0ac" y="232.63742"/>
    </g>
   </g>
   <g id="PathCollection_5">
    <defs>
     <path d="M 0 2.236068 
C 0.593012 2.236068 1.161816 2.000462 1.581139 1.581139 
C 2.000462 1.161816 2.236068 0.593012 2.236068 0 
C 2.236068 -0.593012 2.000462 -1.161816 1.581139 -1.581139 
C 1.161816 -2.000462 0.593012 -2.236068 0 -2.236068 
C -0.593012 -2.236068 -1.161816 -2.000462 -1.581139 -1.581139 
C -2.000462 -1.161816 -2.236068 -0.593012 -2.236068 0 
C -2.236068 0.593012 -2.000462 1.161816 -1.581139 1.581139 
C -1.161816 2.000462 -0.593012 2.236068 0 2.236068 
z
" id="mffb8a05392" style="stroke:#ffff00;stroke-opacity:0.5;"/>
    </defs>
    <g clip-path="url(#pa91881e89e)">
     <use style="fill:#ffff00;fill-opacity:0.5;stroke:#ffff00;stroke-opacity:0.5;" x="69.218182" xlink:href="#mffb8a05392" y="242.116364"/>
    </g>
   </g>
   <g id="PathCollection_6">
    <defs>
     <path d="M -5 5 
L 5 -5 
M -5 -5 
L 5 5 
" id="m60a11e29bd" style="stroke:#ffff00;stroke-width:1.5;"/>
    </defs>
    <g clip-path="url(#pa91881e89e)">
     <use style="fill:#ffff00;stroke:#ffff00;stroke-width:1.5;" x="69.218182" xlink:href="#m60a11e29bd" y="242.116364"/>
    </g>
   </g>
   <g id="PathCollection_7">
    <defs>
     <path d="M 0 2.236068 
C 0.593012 2.236068 1.161816 2.000462 1.581139 1.581139 
C 2.000462 1.161816 2.236068 0.593012 2.236068 0 
C 2.236068 -0.593012 2.000462 -1.161816 1.581139 -1.581139 
C 1.161816 -2.000462 0.593012 -2.236068 0 -2.236068 
C -0.593012 -2.236068 -1.161816 -2.000462 -1.581139 -1.581139 
C -2.000462 -1.161816 -2.236068 -0.593012 -2.236068 0 
C -2.236068 0.593012 -2.000462 1.161816 -1.581139 1.581139 
C -1.161816 2.000462 -0.593012 2.236068 0 2.236068 
z
" id="m1187681554" style="stroke:#9acd32;stroke-opacity:0.5;"/>
    </defs>
    <g clip-path="url(#pa91881e89e)">
     <use style="fill:#9acd32;fill-opacity:0.5;stroke:#9acd32;stroke-opacity:0.5;" x="69.218182" xlink:href="#m1187681554" y="242.116364"/>
    </g>
   </g>
   <g id="PathCollection_8">
    <defs>
     <path d="M -5 5 
L 5 -5 
M -5 -5 
L 5 5 
" id="md8f6f38f10" style="stroke:#9acd32;stroke-width:1.5;"/>
    </defs>
    <g clip-path="url(#pa91881e89e)">
     <use style="fill:#9acd32;stroke:#9acd32;stroke-width:1.5;" x="69.218182" xlink:href="#md8f6f38f10" y="242.116364"/>
    </g>
   </g>
   <g id="patch_3">
    <path d="M 54 252 
L 54 34.56 
" style="fill:none;stroke:#000000;stroke-linecap:square;stroke-linejoin:miter;stroke-width:1.25;"/>
   </g>
   <g id="patch_4">
    <path d="M 388.8 252 
L 388.8 34.56 
" style="fill:none;stroke:#000000;stroke-linecap:square;stroke-linejoin:miter;stroke-width:1.25;"/>
   </g>
   <g id="patch_5">
    <path d="M 54 252 
L 388.8 252 
" style="fill:none;stroke:#000000;stroke-linecap:square;stroke-linejoin:miter;stroke-width:1.25;"/>
   </g>
   <g id="patch_6">
    <path d="M 54 34.56 
L 388.8 34.56 
" style="fill:none;stroke:#000000;stroke-linecap:square;stroke-linejoin:miter;stroke-width:1.25;"/>
   </g>
  </g>
 </g>
 <defs>
  <clipPath id="pa91881e89e">
   <rect height="217.44" width="334.8" x="54" y="34.56"/>
  </clipPath>
 </defs>
</svg>
